<svg width="24" height="24" viewBox="0 0 24 24" fill="none" xmlns="http://www.w3.org/2000/svg">
<path fill-rule="evenodd" clip-rule="evenodd" d="M9.59149 2.4998C6.74359 2.4998 4.45749 4.78627 4.45749 7.6338C4.45749 10.4822 6.74341 12.7688 9.59149 12.7688C12.4397 12.7688 14.7265 10.482 14.7265 7.6338C14.7265 4.78641 12.4395 2.4998 9.59149 2.4998ZM9.59149 3.9998C11.6111 3.9998 13.2265 5.61489 13.2265 7.6338C13.2265 9.65359 11.6113 11.2688 9.59149 11.2688C7.57195 11.2688 5.95749 9.65383 5.95749 7.6338C5.95749 5.61464 7.57207 3.9998 9.59149 3.9998ZM20.0672 7.6164C20.0672 5.38188 18.2551 3.5694 16.0202 3.5694C15.606 3.5694 15.2702 3.90519 15.2702 4.3194C15.2702 4.73362 15.606 5.0694 16.0202 5.0694C17.4266 5.0694 18.5672 6.21023 18.5672 7.6164C18.5672 9.02319 17.427 10.1634 16.0202 10.1634C15.606 10.1634 15.2702 10.4992 15.2702 10.9134C15.2702 11.3276 15.606 11.6634 16.0202 11.6634C18.2554 11.6634 20.0672 9.85161 20.0672 7.6164ZM19.2996 13.9938C18.7449 13.8708 18.1677 13.7876 17.5872 13.7481C17.1739 13.72 16.8161 14.0322 16.788 14.4455C16.7599 14.8588 17.0721 15.2166 17.4854 15.2447C17.991 15.2791 18.4938 15.3516 18.9912 15.4617C19.7678 15.6163 20.2822 15.8732 20.4213 16.1651C20.5261 16.3856 20.5261 16.6442 20.4209 16.8654C20.2827 17.1562 19.771 17.4126 19.0022 17.5708C18.5965 17.6542 18.3352 18.0508 18.4187 18.4565C18.5021 18.8622 18.8987 19.1235 19.3044 19.04C20.4992 18.7943 21.3733 18.3563 21.7757 17.5093C22.0745 16.8806 22.0745 16.1492 21.7757 15.5204C21.371 14.6713 20.4877 14.2301 19.2996 13.9938ZM2.00049 18.0183C2.00049 15.3938 4.75808 14.4563 9.59149 14.4563L9.91127 14.4577C14.5557 14.4981 17.1835 15.4361 17.1835 17.9983C17.1835 20.5062 14.665 21.4736 10.2236 21.5547L9.59149 21.5603C4.74715 21.5603 2.00049 20.6394 2.00049 18.0183ZM15.6835 17.9983C15.6835 16.6506 13.6129 15.9563 9.59149 15.9563C5.57414 15.9563 3.50049 16.6612 3.50049 18.0183C3.50049 19.3667 5.56916 20.0603 9.59149 20.0603C13.6091 20.0603 15.6835 19.3553 15.6835 17.9983Z" fill="#200E32"/>
</svg>
