<svg width="24" height="24" viewBox="0 0 24 24" fill="none" xmlns="http://www.w3.org/2000/svg">
<path fill-rule="evenodd" clip-rule="evenodd" d="M11.9377 3.4375C9.38215 3.4375 7.32945 5.4902 7.32945 8.04575C7.32945 10.602 9.38198 12.6549 11.9377 12.6549C14.4934 12.6549 16.5459 10.602 16.5459 8.04575C16.5459 5.4902 14.4932 3.4375 11.9377 3.4375ZM11.9377 4.9375C13.6648 4.9375 15.0459 6.31863 15.0459 8.04575C15.0459 9.77367 13.6649 11.1549 11.9377 11.1549C10.2105 11.1549 8.82945 9.77367 8.82945 8.04575C8.82945 6.31863 10.2106 4.9375 11.9377 4.9375ZM6.28993 4.37937C6.70414 4.37937 7.03993 4.71516 7.03993 5.12937C7.03993 5.54359 6.70414 5.87937 6.28993 5.87937C5.10156 5.87937 4.13776 6.84275 4.13776 8.03062C4.13776 9.2185 5.10156 10.1819 6.28993 10.1819C6.70414 10.1819 7.03993 10.5177 7.03993 10.9319C7.03993 11.3461 6.70414 11.6819 6.28993 11.6819C4.27328 11.6819 2.63776 10.0471 2.63776 8.03062C2.63776 6.01418 4.27328 4.37937 6.28993 4.37937ZM21.247 8.03062C21.247 6.01418 19.6115 4.37937 17.5948 4.37937C17.1806 4.37937 16.8448 4.71516 16.8448 5.12937C16.8448 5.54359 17.1806 5.87937 17.5948 5.87937C18.7832 5.87937 19.747 6.84275 19.747 8.03062C19.747 9.2185 18.7832 10.1819 17.5948 10.1819C17.1806 10.1819 16.8448 10.5177 16.8448 10.9319C16.8448 11.3461 17.1806 11.6819 17.5948 11.6819C19.6115 11.6819 21.247 10.0471 21.247 8.03062ZM20.4958 13.555C20.0156 13.4466 19.5024 13.3725 18.9806 13.3365C18.5674 13.308 18.2093 13.6199 18.1808 14.0331C18.1523 14.4464 18.4642 14.8045 18.8774 14.833C19.3239 14.8638 19.7615 14.9269 20.187 15.0227C20.8487 15.1525 21.2801 15.3678 21.3872 15.5921C21.4677 15.7615 21.4677 15.9606 21.3864 16.132C21.2807 16.3541 20.8529 16.5682 20.2006 16.7024C19.7949 16.7858 19.5336 17.1823 19.6171 17.5881C19.7005 17.9938 20.097 18.2551 20.5028 18.1716C21.5809 17.9499 22.3708 17.5546 22.7413 16.7756C23.016 16.1964 23.016 15.5247 22.7414 14.947C22.3682 14.1651 21.5648 13.7643 20.4958 13.555ZM5.70394 14.0331C5.67544 13.6199 5.31735 13.308 4.90412 13.3365C4.38233 13.3725 3.86916 13.4466 3.36839 13.5593L3.16194 13.603C2.21432 13.8195 1.49137 14.2174 1.14435 14.9469C0.8685 15.5241 0.8685 16.197 1.14464 16.7762C1.51357 17.5544 2.30334 17.9498 3.38199 18.1716C3.78771 18.2551 4.18425 17.9938 4.26768 17.5881C4.35111 17.1823 4.08984 16.7858 3.68412 16.7024C3.03203 16.5683 2.60466 16.3543 2.49933 16.1321C2.41727 15.96 2.41727 15.7621 2.49832 15.5925C2.60531 15.3676 3.03627 15.1525 3.67715 15.027L4.01038 14.9588C4.34256 14.8974 4.67243 14.8561 5.00732 14.833C5.42055 14.8045 5.73244 14.4464 5.70394 14.0331ZM5.16703 17.1845C5.16703 14.7986 7.63497 13.9595 11.9377 13.9595L12.2425 13.961C16.3655 13.9997 18.7084 14.8407 18.7084 17.1671C18.7084 19.4388 16.4688 20.3087 12.5397 20.3863L11.9377 20.3921C7.6251 20.3921 5.16703 19.5678 5.16703 17.1845ZM17.2084 17.1671C17.2084 16.0566 15.4278 15.4595 11.9377 15.4595C8.45099 15.4595 6.66703 16.0661 6.66703 17.1845C6.66703 18.2952 8.44701 18.8921 11.9377 18.8921C15.4234 18.8921 17.2084 18.2851 17.2084 17.1671Z" fill="#200E32"/>
</svg>
