<svg width="24" height="24" viewBox="0 0 24 24" fill="none" xmlns="http://www.w3.org/2000/svg">
<path fill-rule="evenodd" clip-rule="evenodd" d="M9.87749 1.9999C6.92795 1.9999 4.55949 4.36801 4.55949 7.3179C4.55949 10.2671 6.92827 12.6359 9.87749 12.6359C12.8274 12.6359 15.1955 10.2674 15.1955 7.3179C15.1955 4.36769 12.8277 1.9999 9.87749 1.9999ZM9.87749 3.4999C11.9993 3.4999 13.6955 5.19611 13.6955 7.3179C13.6955 9.43906 11.9989 11.1359 9.87749 11.1359C7.7567 11.1359 6.05949 9.43869 6.05949 7.3179C6.05949 5.19649 7.75633 3.4999 9.87749 3.4999ZM9.87749 14.4562C4.84748 14.4562 2.00049 15.4107 2.00049 18.1152C2.00049 20.8227 4.86011 21.7952 9.87749 21.7952L10.521 21.7897C15.1485 21.7088 17.7545 20.7225 17.7545 18.1362C17.7545 15.4875 15.0178 14.4993 10.2016 14.4576L9.87749 14.4562ZM9.87749 15.9562C14.079 15.9562 16.2545 16.696 16.2545 18.1362C16.2545 19.5674 14.0843 20.2952 9.87749 20.2952C5.67602 20.2952 3.50049 19.5554 3.50049 18.1152C3.50049 16.7221 5.55385 15.996 9.54077 15.9578L9.87749 15.9562ZM19.2042 7.9191C19.5839 7.9191 19.8977 8.20125 19.9473 8.56733L19.9542 8.6691V9.924H21.2501C21.6643 9.924 22.0001 10.2598 22.0001 10.674C22.0001 11.0537 21.7179 11.3675 21.3519 11.4172L21.2501 11.424H19.9542V12.6791C19.9542 13.0933 19.6184 13.4291 19.2042 13.4291C18.8245 13.4291 18.5107 13.1469 18.461 12.7809L18.4542 12.6791V11.424H17.1601C16.7459 11.424 16.4101 11.0882 16.4101 10.674C16.4101 10.2943 16.6922 9.98051 17.0583 9.93085L17.1601 9.924H18.4542V8.6691C18.4542 8.25489 18.79 7.9191 19.2042 7.9191Z" fill="#200E32"/>
</svg>
