<svg width="24" height="24" viewBox="0 0 24 24" fill="none" xmlns="http://www.w3.org/2000/svg">
<path fill-rule="evenodd" clip-rule="evenodd" d="M22 7.6659L22 16.3349C22 19.7385 19.5707 21.9999 16.084 21.9999L7.916 21.9999C4.43296 21.9999 2 19.7318 2 16.3349L2 7.6659C2 4.26212 4.4295 1.9999 7.916 1.9999L16.084 1.9999C19.5705 1.9999 22 4.26212 22 7.6659ZM20.5 16.3349L20.5 7.6659C20.5 5.1154 18.765 3.4999 16.084 3.4999L7.916 3.4999C5.23496 3.4999 3.5 5.1154 3.5 7.6659L3.5 16.3349C3.5 18.8789 5.23878 20.4999 7.916 20.4999L16.084 20.4999C18.7653 20.4999 20.5 18.8851 20.5 16.3349ZM16.836 11.9999C16.836 12.3796 16.5538 12.6934 16.1878 12.7431L16.086 12.7499L9.73081 12.7499L12.2069 15.2164C12.4737 15.4821 12.4988 15.8988 12.2816 16.1928L12.2092 16.2771C11.9435 16.5439 11.5268 16.569 11.2328 16.3518L11.1485 16.2794L7.3845 12.5314C7.11686 12.2649 7.09253 11.8467 7.31151 11.5527L7.31421 11.5496C7.33516 11.5217 7.358 11.4953 7.38255 11.4707L7.3845 11.4684L11.1485 7.72044C11.442 7.42817 11.9169 7.42918 12.2092 7.7227C12.4749 7.98953 12.4982 8.40625 12.2797 8.6994L12.2069 8.78336L9.72942 11.2499L16.086 11.2499C16.5002 11.2499 16.836 11.5857 16.836 11.9999Z" fill="#200E32"/>
</svg>
