<svg width="24" height="24" viewBox="0 0 24 24" fill="none" xmlns="http://www.w3.org/2000/svg">
<path fill-rule="evenodd" clip-rule="evenodd" d="M7.666 2H16.335C19.7386 2 22 4.42931 22 7.916V16.084C22 19.567 19.7319 22 16.335 22H7.666C4.26222 22 2 19.5705 2 16.084V7.916C2 4.4295 4.26222 2 7.666 2ZM16.335 3.5H7.666C5.1155 3.5 3.5 5.23496 3.5 7.916V16.084C3.5 18.765 5.1155 20.5 7.666 20.5H16.335C18.879 20.5 20.5 18.7612 20.5 16.084V7.916C20.5 5.23468 18.8852 3.5 16.335 3.5ZM12 7.164C12.3797 7.164 12.6935 7.44615 12.7432 7.81223L12.75 7.914V14.2692L15.2165 11.7931C15.4822 11.5263 15.8989 11.5012 16.1929 11.7184L16.2772 11.7908C16.544 12.0565 16.5691 12.4732 16.3519 12.7672L16.2795 12.8515L12.5315 16.6155C12.265 16.8831 11.8468 16.9075 11.5528 16.6885L11.5497 16.6858C11.5218 16.6648 11.4954 16.642 11.4708 16.6174L11.4685 16.6155L7.72054 12.8515C7.42827 12.558 7.42928 12.0831 7.7228 11.7908C7.98963 11.5251 8.40635 11.5018 8.69949 11.7203L8.78346 11.7931L11.25 14.2706V7.914C11.25 7.49979 11.5858 7.164 12 7.164Z" fill="#200E32"/>
</svg>
