<svg width="24" height="24" viewBox="0 0 24 24" fill="none" xmlns="http://www.w3.org/2000/svg">
<path fill-rule="evenodd" clip-rule="evenodd" d="M2 11.9998C2 17.5227 6.47745 21.9998 12 21.9998C17.5225 21.9998 22 17.5227 22 11.9998C22 6.47759 17.5222 1.9998 12 1.9998C6.47779 1.9998 2 6.47759 2 11.9998ZM3.5 11.9998C3.5 7.30602 7.30621 3.4998 12 3.4998C16.6938 3.4998 20.5 7.30602 20.5 11.9998C20.5 16.6942 16.6941 20.4998 12 20.4998C7.30586 20.4998 3.5 16.6942 3.5 11.9998ZM9.95572 15.0235C9.73723 15.3166 9.76054 15.7333 10.0262 16.0002C10.3185 16.2937 10.7934 16.2947 11.0869 16.0025L14.5729 12.5315L14.6459 12.4472C14.8649 12.1532 14.8405 11.735 14.5729 11.4685L11.0869 7.99753L11.0026 7.92509C10.7085 7.70787 10.2919 7.73298 10.0262 7.99982L9.95379 8.08409C9.73657 8.37817 9.76167 8.79478 10.0285 9.06047L12.98 12.001L10.0285 14.9395L9.95572 15.0235Z" fill="#200E32"/>
</svg>
