<svg width="24" height="24" viewBox="0 0 24 24" fill="none" xmlns="http://www.w3.org/2000/svg">
<path fill-rule="evenodd" clip-rule="evenodd" d="M22 12.0002C22 6.47732 17.5225 2.0002 12 2.0002C6.47745 2.0002 2 6.47732 2 12.0002C2 17.5224 6.47779 22.0002 12 22.0002C17.5222 22.0002 22 17.5224 22 12.0002ZM20.5 12.0002C20.5 16.694 16.6938 20.5002 12 20.5002C7.30621 20.5002 3.5 16.694 3.5 12.0002C3.5 7.30577 7.30586 3.5002 12 3.5002C16.6941 3.5002 20.5 7.30577 20.5 12.0002ZM14.0443 8.97651C14.2628 8.68337 14.2395 8.26665 13.9738 7.99981C13.6815 7.70629 13.2066 7.70527 12.9131 7.99753L9.42711 11.4685L9.35412 11.5528C9.13513 11.8468 9.15946 12.265 9.42711 12.5315L12.9131 16.0025L12.9974 16.0749C13.2915 16.2921 13.7081 16.267 13.9738 16.0002L14.0462 15.9159C14.2634 15.6218 14.2383 15.2052 13.9715 14.9395L11.02 11.999L13.9715 9.06047L14.0443 8.97651Z" fill="#200E32"/>
</svg>
