<svg width="24" height="24" viewBox="0 0 24 24" fill="none" xmlns="http://www.w3.org/2000/svg">
<g clip-path="url(#clip0_115_10034)">
<path fill-rule="evenodd" clip-rule="evenodd" d="M12 2C6.47712 2 2 6.47745 2 12C2 17.5225 6.47712 22 12 22C17.5222 22 22 17.5222 22 12C22 6.47779 17.5222 2 12 2ZM12 3.5C16.6938 3.5 20.5 7.30621 20.5 12C20.5 16.6938 16.6938 20.5 12 20.5C7.30557 20.5 3.5 16.6941 3.5 12C3.5 7.30586 7.30557 3.5 12 3.5ZM8.97631 9.95572C8.68317 9.73723 8.26645 9.76054 7.99961 10.0262C7.70609 10.3185 7.70507 10.7934 7.99733 11.0869L11.4683 14.5729L11.5526 14.6459C11.8466 14.8649 12.2648 14.8405 12.5313 14.5729L16.0023 11.0869L16.0747 11.0026C16.2919 10.7085 16.2668 10.2919 16 10.0262L15.9157 9.95379C15.6216 9.73657 15.205 9.76167 14.9393 10.0285L11.9988 12.98L9.06027 10.0285L8.97631 9.95572Z" fill="#FF6262"/>
</g>
<defs>
<clipPath id="clip0_115_10034">
<rect width="24" height="24" fill="white"/>
</clipPath>
</defs>
</svg>
