<svg width="24" height="24" viewBox="0 0 24 24" fill="none" xmlns="http://www.w3.org/2000/svg">
<path fill-rule="evenodd" clip-rule="evenodd" d="M20.7197 2.22087C21.0126 1.92798 21.4875 1.92798 21.7804 2.22087C22.0467 2.48714 22.0709 2.9038 21.853 3.19741L21.7804 3.28153L12.3346 12.7274C13.0531 13.3279 13.8865 13.8237 14.8192 14.208C15.0107 14.2786 15.1627 14.2498 15.5274 14.0507L15.728 13.9373C16.5158 13.4844 16.965 13.3317 17.644 13.4748C18.2637 13.596 20.5249 15.2985 21.2906 16.092C21.6946 16.5121 21.9536 16.9651 21.9994 17.5215C22.0529 18.8933 20.3909 20.8117 19.3786 21.3801C18.2302 22.2083 16.7678 22.1961 15.1332 21.4348C13.2189 20.6427 10.7733 18.8561 8.44494 16.617L3.2804 21.7815C2.98751 22.0744 2.51263 22.0744 2.21974 21.7815C1.95347 21.5153 1.92927 21.0986 2.14712 20.805L2.21974 20.7209L10.7035 12.2371C10.7088 12.2314 10.7143 12.2258 10.7199 12.2202C10.7253 12.2148 10.7308 12.2095 10.7363 12.2043L20.7197 2.22087ZM11.2703 13.7916L9.50586 15.5561C11.705 17.6669 13.9998 19.3425 15.7364 20.0618C16.8745 20.5914 17.7351 20.631 18.4328 20.2097L18.5702 20.1193C19.2133 19.7549 20.5263 18.2394 20.5026 17.6133C20.4926 17.4942 20.3967 17.3264 20.2103 17.1326C19.6526 16.5547 17.5737 14.9894 17.3455 14.9447C17.1555 14.9047 16.9942 14.949 16.6117 15.1608L16.4027 15.2796C15.5882 15.7461 15.0497 15.8915 14.2745 15.6053C13.1375 15.1373 12.1329 14.5321 11.2703 13.7916ZM6.51519 2.00368C7.03698 2.04874 7.48935 2.30688 7.91283 2.71253C8.24115 3.03096 8.83746 3.74901 9.37999 4.47132L9.66334 4.85452C10.1891 5.57669 10.4703 6.03932 10.5236 6.34639C10.6566 6.97826 10.5397 7.40817 10.1707 8.08235L10.0239 8.34209C9.75919 8.80481 9.71484 8.96913 9.78368 9.15757C9.87495 9.38033 9.96553 9.58282 10.0587 9.771C10.2426 10.1422 10.0907 10.5921 9.71956 10.776C9.34839 10.9598 8.89845 10.808 8.7146 10.4368C8.6047 10.2149 8.49977 9.98036 8.38584 9.70098C8.13111 9.00897 8.2353 8.49712 8.62002 7.78073L8.76306 7.52558C9.04064 7.04225 9.10023 6.86666 9.05086 6.62995L9.02949 6.59037C8.94919 6.45658 8.65129 6.0091 8.27548 5.49979L8.17999 5.37132C7.68156 4.70773 7.12715 4.04014 6.87188 3.79252C6.67599 3.60489 6.5072 3.50857 6.41417 3.50001C5.82373 3.47124 4.46634 4.59363 3.91789 5.37834L3.83424 5.50574C3.39612 6.10251 3.38389 6.93608 3.8668 8.08598L3.96317 8.30531C4.4811 9.56302 5.49813 11.1126 6.86205 12.7438C7.12774 13.0616 7.08552 13.5346 6.76775 13.8003C6.44998 14.066 5.97699 14.0238 5.71129 13.706C4.35429 12.083 3.30879 10.5197 2.70949 9.18583L2.58795 8.90357C1.81474 7.21774 1.78996 5.75561 2.58844 4.6729C3.28858 3.51879 5.15536 1.9369 6.51519 2.00368Z" fill="#200E32"/>
</svg>
