<svg width="24" height="24" viewBox="0 0 24 24" fill="none" xmlns="http://www.w3.org/2000/svg">
<g clip-path="url(#clip0_206_10385)">
<path fill-rule="evenodd" clip-rule="evenodd" d="M10.0473 8.98987C9.75376 8.77199 9.33709 8.79615 9.0708 9.06239C8.77788 9.35525 8.77783 9.83012 9.07069 10.123L10.9385 11.9913L9.07324 13.8565L9.00063 13.9407C8.78277 14.2343 8.80698 14.6509 9.07324 14.9172C9.36614 15.2101 9.84101 15.2101 10.1339 14.9172L11.9991 13.052L13.8667 14.92L13.9508 14.9927C14.2444 15.2106 14.6611 15.1864 14.9273 14.9202C15.2203 14.6273 15.2203 14.1524 14.9275 13.8595L13.0597 11.9914L14.9259 10.1252L14.9985 10.0411C15.2164 9.74747 15.1922 9.33081 14.9259 9.06454C14.633 8.77165 14.1581 8.77165 13.8652 9.06454L11.9992 10.9306L10.1315 9.0625L10.0473 8.98987Z" fill="#6A8FAE"/>
</g>
<defs>
<clipPath id="clip0_206_10385">
<rect width="24" height="24" fill="white"/>
</clipPath>
</defs>
</svg>
