<svg width="24" height="24" viewBox="0 0 24 24" fill="none" xmlns="http://www.w3.org/2000/svg">
<path fill-rule="evenodd" clip-rule="evenodd" d="M14.3799 4.2979C13.5873 3.05582 11.9448 2.62625 10.6301 3.35492C10.1662 3.60988 9.78184 3.99392 9.52419 4.46014L2.25243 17.1868L2.18771 17.358C1.67369 18.8448 2.37078 20.3951 3.76369 20.9625L3.9867 21.0419C4.21217 21.1118 4.44464 21.1535 4.68067 21.1667L4.76393 21.165L4.79563 21.1679H19.2776L19.4537 21.1536C20.9644 20.9864 22.0739 19.6979 21.9966 18.1954C21.9787 17.8746 21.9095 17.5637 21.7903 17.2737L14.4708 4.45083L14.3799 4.2979ZM11.3549 4.66815C11.9994 4.31095 12.8078 4.54333 13.1634 5.18597L20.4454 17.931L20.4671 18.0285C20.4799 18.0953 20.4937 18.1845 20.4988 18.2759C20.5363 19.0056 19.9725 19.6305 19.2384 19.6689L4.79563 19.6679L4.76493 19.669L4.6143 19.6526C4.51535 19.6363 4.4191 19.6094 4.32683 19.5722C3.64952 19.2963 3.32237 18.5212 3.59853 17.841L10.8318 5.19498L10.9137 5.06423C11.0312 4.89784 11.1811 4.76372 11.3549 4.66815ZM11.2502 16.2696C11.2502 15.8556 11.5862 15.5136 12.0002 15.5136C12.4142 15.5136 12.7502 15.8446 12.7502 16.2586V16.2696C12.7502 16.6836 12.4142 17.0196 12.0002 17.0196C11.5862 17.0196 11.2502 16.6836 11.2502 16.2696ZM12.733 10.1943C12.6833 9.82826 12.3695 9.5461 11.9898 9.5461C11.5756 9.5461 11.2398 9.88189 11.2398 10.2961V13.3961L11.2467 13.4979C11.2963 13.8639 11.6101 14.1461 11.9898 14.1461C12.404 14.1461 12.7398 13.8103 12.7398 13.3961V10.2961L12.733 10.1943Z" fill="#200E32"/>
</svg>
