<svg width="24" height="24" viewBox="0 0 24 24" fill="none" xmlns="http://www.w3.org/2000/svg">
<path fill-rule="evenodd" clip-rule="evenodd" d="M9.8647 2.88767C10.9911 1.75619 12.7935 1.70638 13.9512 2.71646L14.1336 2.88647L14.8523 3.60521C15.0992 3.85093 15.423 4.00243 15.7675 4.03647L15.9162 4.0438H16.9442C18.548 4.0438 19.8595 5.29796 19.9511 6.87885L19.9562 7.0558V8.0828C19.9562 8.43259 20.0768 8.76887 20.2944 9.03625L20.3936 9.14647L21.1124 9.86527C22.2439 10.9917 22.2944 12.793 21.2578 13.98L21.1226 14.1251L20.3942 14.8535C20.1492 15.0991 19.9976 15.4231 19.9636 15.7673L19.9562 15.9158V16.9448C19.9562 18.5485 18.7021 19.8591 17.1212 19.9507L16.9442 19.9558H15.9162C15.5677 19.9558 15.231 20.0769 14.9634 20.2951L14.8532 20.3945L14.1354 21.1113C13.0102 22.2442 11.2076 22.2944 10.02 21.2574L9.8659 21.1131L9.14878 20.396C8.90039 20.1494 8.57595 19.9973 8.23245 19.9632L8.08423 19.9558H7.05523C5.45209 19.9558 4.14095 18.7023 4.04934 17.1217L4.04423 16.9448V15.9158C4.04423 15.5678 3.92293 15.2308 3.70485 14.9637L3.60553 14.8538L2.8884 14.1356C1.75582 13.0094 1.70559 11.2068 2.74261 10.0205L2.8779 9.87547L3.60402 9.14835C3.85096 8.89965 4.00279 8.57583 4.03689 8.23148L4.04423 8.0828V7.0558L4.04934 6.87887C4.13756 5.3567 5.35672 4.13716 6.87836 4.04891L7.05523 4.0438H8.08423C8.43271 4.0438 8.76948 3.92291 9.03652 3.70574L9.14653 3.60684L9.8647 2.88767ZM13.105 3.97735L13.0651 3.94033C12.5108 3.38856 11.635 3.35626 11.0416 3.84258L10.9269 3.94676L10.2057 4.66901C9.68842 5.18259 9.0043 5.48967 8.28205 5.53728L8.08423 5.5438H7.05523C6.26766 5.5438 5.61994 6.14795 5.55041 6.91823L5.54423 7.0558V8.0828C5.54423 8.81196 5.27962 9.51311 4.80233 10.0612L4.66692 10.2068L3.93976 10.9349C3.38794 11.4892 3.35581 12.3649 3.84346 12.959L3.94793 13.0738L4.66719 13.7941C5.18159 14.3097 5.48988 14.995 5.53769 15.7178L5.54423 15.9158V16.9448C5.54423 17.7328 6.14793 18.3801 6.91774 18.4496L7.05523 18.4558H8.08423C8.81202 18.4558 9.51377 18.7207 10.062 19.1981L10.2076 19.3335L10.9309 20.0568C11.4891 20.6119 12.365 20.6442 12.9585 20.1566L13.0733 20.0521L13.7942 19.3322C14.3109 18.8179 14.9953 18.5101 15.7182 18.4623L15.9162 18.4558H16.9442C17.7329 18.4558 18.3805 17.8524 18.45 17.0823L18.4562 16.9448V15.9158C18.4562 15.1869 18.721 14.4839 19.1977 13.9383L19.3329 13.7935L20.0604 13.066C20.6122 12.511 20.6442 11.6358 20.1572 11.042L20.0529 10.9271L19.331 10.2052C18.8171 9.68767 18.5103 9.00424 18.4627 8.28095L18.4562 8.0828V7.0558C18.4562 6.26739 17.8522 5.61953 17.0818 5.54998L16.9442 5.5438H15.9162C15.1871 5.5438 14.485 5.27941 13.9381 4.80244L13.7929 4.66713L13.105 3.97735ZM14.0366 15.1024C14.1766 15.2424 14.3666 15.3224 14.5666 15.3224C14.7666 15.3224 14.9566 15.2424 15.0966 15.1024C15.1666 15.0324 15.2266 14.9424 15.2666 14.8524C15.2966 14.7624 15.3166 14.6734 15.3166 14.5724C15.3166 14.4724 15.2966 14.3724 15.2666 14.2824C15.2266 14.1924 15.1666 14.1124 15.0966 14.0424C14.8166 13.7624 14.3166 13.7624 14.0366 14.0424C13.9666 14.1124 13.9166 14.1924 13.8766 14.2824C13.8366 14.3724 13.8166 14.4724 13.8166 14.5724C13.8166 14.6734 13.8366 14.7624 13.8766 14.8524C13.9166 14.9424 13.9666 15.0324 14.0366 15.1024ZM9.42653 10.1828C9.32653 10.1828 9.23653 10.1618 9.14653 10.1218C9.05653 10.0818 8.96653 10.0328 8.89653 9.9628C8.82653 9.8828 8.77653 9.8028 8.73653 9.7128C8.69653 9.6218 8.67653 9.5328 8.67653 9.4328C8.67653 9.3318 8.69653 9.2328 8.73653 9.1428C8.77653 9.0528 8.82653 8.9628 8.89653 8.9028C9.18653 8.6218 9.67653 8.6218 9.95653 8.9028C10.0965 9.0418 10.1765 9.2328 10.1765 9.4328C10.1765 9.5328 10.1665 9.6218 10.1265 9.7128C10.0865 9.8028 10.0265 9.8828 9.95653 9.9628C9.88653 10.0328 9.80653 10.0818 9.71653 10.1218C9.62653 10.1618 9.52653 10.1828 9.42653 10.1828ZM15.1003 8.89917C14.8074 8.60627 14.3325 8.60627 14.0396 8.89917L8.8996 14.0392L8.82698 14.1233C8.60912 14.4169 8.63333 14.8336 8.8996 15.0998C9.19249 15.3927 9.66736 15.3927 9.96026 15.0998L15.1003 9.95983L15.1729 9.87571C15.3907 9.5821 15.3665 9.16543 15.1003 8.89917Z" fill="#200E32"/>
</svg>
