<svg width="24" height="24" viewBox="0 0 24 24" fill="none" xmlns="http://www.w3.org/2000/svg">
<g clip-path="url(#clip0_94_9994)">
<path fill-rule="evenodd" clip-rule="evenodd" d="M8.13751 22C7.72551 22 7.33451 21.968 6.96651 21.905L6.74851 21.864C4.37751 21.371 2.99951 19.555 2.99951 16.791V7.209C2.99951 6.875 3.01951 6.555 3.05951 6.249C3.40851 3.564 5.25351 2 8.13751 2H15.8625C19.0585 2 20.9695 3.92 20.9995 7.132V7.209V16.791C20.9995 20.048 19.0835 22 15.8625 22H8.13751ZM8.13751 3.457C5.68151 3.457 4.43651 4.72 4.43651 7.209V16.791C4.43651 19.28 5.68151 20.543 8.13751 20.543H15.8535C18.3085 20.543 19.5455 19.28 19.5455 16.791V7.209C19.5455 4.72 18.3085 3.457 15.8535 3.457H8.13751ZM16.3055 16.234C16.3055 15.834 15.9865 15.51 15.5925 15.51H8.38151C7.98751 15.51 7.66751 15.834 7.66751 16.234C7.66751 16.634 7.98751 16.958 8.38151 16.958H15.5925C15.9865 16.958 16.3055 16.634 16.3055 16.234ZM15.5925 11.271C15.8675 11.241 16.1365 11.373 16.2835 11.61C16.4305 11.849 16.4305 12.151 16.2835 12.39C16.1365 12.627 15.8675 12.759 15.5925 12.729H8.38151C8.01551 12.687 7.73851 12.374 7.73851 12C7.73851 11.626 8.01551 11.312 8.38151 11.271H15.5925ZM11.7765 7.771C11.7765 7.397 11.4995 7.083 11.1335 7.042H8.39051C8.02351 7.083 7.74651 7.397 7.74651 7.771C7.74651 8.144 8.02351 8.458 8.39051 8.499H11.1335C11.4995 8.458 11.7765 8.144 11.7765 7.771Z" fill="#FF6262"/>
</g>
<defs>
<clipPath id="clip0_94_9994">
<rect width="24" height="24" fill="white"/>
</clipPath>
</defs>
</svg>
