<svg width="24" height="24" viewBox="0 0 24 24" fill="none" xmlns="http://www.w3.org/2000/svg">
<path fill-rule="evenodd" clip-rule="evenodd" d="M3.96867 13.477L13.6592 3.92201C14.906 2.69266 16.9283 2.69266 18.175 3.92201L19.4694 5.19825C20.7162 6.4276 20.7162 8.42155 19.4694 9.6509L9.74061 19.2436C9.1843 19.7921 8.43007 20.0999 7.64282 20.0999H3.65854C3.28841 20.0999 2.99098 19.7992 3.00021 19.4344L3.10043 15.4704C3.12036 14.7212 3.43127 14.0069 3.96867 13.477ZM18.5381 6.11653L17.2437 4.84029C16.5113 4.1181 15.323 4.1181 14.5905 4.84029L13.8382 5.58207L17.7862 9.47398L18.5381 8.73261C19.2705 8.01042 19.2705 6.83873 18.5381 6.11653ZM4.89998 14.3953L12.9069 6.50036L16.8549 10.3923L8.8093 18.3253L8.70228 18.4219C8.4067 18.6661 8.03222 18.8012 7.64282 18.8012L4.33345 18.8008L4.41707 15.5036C4.42814 15.0876 4.60126 14.6898 4.89998 14.3953ZM21 19.4507C21 19.0921 20.7052 18.8014 20.3415 18.8014H13.471L13.3816 18.8073C13.0602 18.8503 12.8125 19.1219 12.8125 19.4507C12.8125 19.8093 13.1073 20.1 13.471 20.1H20.3415L20.4308 20.0941C20.7523 20.0511 21 19.7794 21 19.4507Z" fill="#200E32"/>
</svg>
