<svg width="24" height="24" viewBox="0 0 24 24" fill="none" xmlns="http://www.w3.org/2000/svg">
<g clip-path="url(#clip0_124_9997)">
<rect width="24" height="24" rx="12" fill="#FF6262"/>
<path d="M10.72 14.496V11.952C11.584 11.9093 12.2453 11.728 12.704 11.408C13.1733 11.0773 13.408 10.592 13.408 9.952V9.728C13.408 9.23733 13.2587 8.85867 12.96 8.592C12.6613 8.31467 12.2613 8.176 11.76 8.176C11.2267 8.176 10.8 8.33067 10.48 8.64C10.16 8.94933 9.94133 9.344 9.824 9.824L8.304 9.216C8.4 8.88533 8.53867 8.56533 8.72 8.256C8.912 7.94667 9.152 7.67467 9.44 7.44C9.728 7.19467 10.0693 7.00267 10.464 6.864C10.8587 6.71467 11.312 6.64 11.824 6.64C12.3467 6.64 12.8213 6.71467 13.248 6.864C13.6747 7.01333 14.0373 7.22667 14.336 7.504C14.6347 7.77067 14.864 8.10133 15.024 8.496C15.184 8.88 15.264 9.30667 15.264 9.776C15.264 10.256 15.1787 10.688 15.008 11.072C14.848 11.4453 14.6293 11.7653 14.352 12.032C14.0853 12.2987 13.7813 12.5173 13.44 12.688C13.0987 12.848 12.7467 12.96 12.384 13.024V14.496H10.72ZM11.568 18.192C11.1627 18.192 10.864 18.096 10.672 17.904C10.4907 17.7013 10.4 17.4453 10.4 17.136V16.864C10.4 16.5547 10.4907 16.304 10.672 16.112C10.864 15.9093 11.1627 15.808 11.568 15.808C11.9733 15.808 12.2667 15.9093 12.448 16.112C12.64 16.304 12.736 16.5547 12.736 16.864V17.136C12.736 17.4453 12.64 17.7013 12.448 17.904C12.2667 18.096 11.9733 18.192 11.568 18.192Z" fill="white"/>
</g>
<defs>
<clipPath id="clip0_124_9997">
<rect width="24" height="24" fill="white"/>
</clipPath>
</defs>
</svg>
