<svg width="24" height="24" viewBox="0 0 24 24" fill="none" xmlns="http://www.w3.org/2000/svg">
<g clip-path="url(#clip0_24_9978)">
<path fill-rule="evenodd" clip-rule="evenodd" d="M5.94945 2.5C3.76837 2.5 2 4.26322 2 6.43714C2 8.61016 3.76859 10.3732 5.94945 10.3732C8.13031 10.3732 9.89889 8.61016 9.89889 6.43714C9.89889 4.26322 8.13052 2.5 5.94945 2.5ZM5.94945 4.00741C7.295 4.00741 8.38634 5.09557 8.38634 6.43714C8.38634 7.77772 7.29487 8.86575 5.94945 8.86575C4.60403 8.86575 3.51255 7.77772 3.51255 6.43714C3.51255 5.09557 4.6039 4.00741 5.94945 4.00741ZM21.9997 6.43714C21.9997 6.02088 21.6611 5.68343 21.2434 5.68343H13.5652L13.4626 5.69031C13.0935 5.74022 12.8089 6.05557 12.8089 6.43714C12.8089 6.8534 13.1475 7.19085 13.5652 7.19085H21.2434L21.346 7.18397C21.7151 7.13406 21.9997 6.81871 21.9997 6.43714ZM14.1011 17.564C14.1011 15.3902 15.8693 13.628 18.0506 13.628C20.2318 13.628 22 15.3902 22 17.564C22 19.7378 20.2318 21.5 18.0506 21.5C15.8693 21.5 14.1011 19.7378 14.1011 17.564ZM20.4874 17.564C20.4874 16.2227 19.3964 15.1354 18.0506 15.1354C16.7047 15.1354 15.6137 16.2227 15.6137 17.564C15.6137 18.9052 16.7047 19.9926 18.0506 19.9926C19.3964 19.9926 20.4874 18.9052 20.4874 17.564ZM11.1912 17.564C11.1912 17.1477 10.8526 16.8103 10.4349 16.8103H2.75673L2.6541 16.8171C2.28496 16.8671 2.00045 17.1824 2.00045 17.564C2.00045 17.9802 2.33904 18.3177 2.75673 18.3177H10.4349L10.5375 18.3108C10.9067 18.2609 11.1912 17.9455 11.1912 17.564Z" fill="white"/>
</g>
<defs>
<clipPath id="clip0_24_9978">
<rect width="24" height="24" fill="white"/>
</clipPath>
</defs>
</svg>
