<svg width="20" height="20" viewBox="0 0 20 20" fill="none" xmlns="http://www.w3.org/2000/svg">
<path fill-rule="evenodd" clip-rule="evenodd" d="M5.66618 0H14.3338C17.738 0 20 2.42974 20 5.91672V14.0833C20 17.5704 17.7378 20 14.3328 20H5.66618C2.26205 20 0 17.5703 0 14.0833V5.91672C0 2.43267 2.26744 0 5.66618 0ZM14.3338 1.50323H5.66618C3.1222 1.50323 1.50323 3.24018 1.50323 5.91672V14.0833C1.50323 14.8284 1.62799 15.5003 1.86293 16.0821L3.0131 14.686L3.52124 14.0594C4.80032 12.4746 5.97286 11.7901 7.5086 12.4333C7.74181 12.5312 7.94127 12.6368 8.1965 12.7944L8.85714 13.2206C9.51687 13.6389 9.83105 13.6989 10.3135 13.4375C10.7425 13.2054 11.0433 12.8808 11.5007 12.1766L11.801 11.6989L12.0052 11.3713C12.1888 11.0813 12.3196 10.8909 12.4797 10.6836C13.5379 9.31409 15.1879 8.86812 16.6302 9.73576C17.2548 10.1122 17.7085 10.4859 18.4968 11.238V5.91672C18.4968 3.23689 16.8828 1.50323 14.3338 1.50323ZM18.4968 13.3147L18.4479 13.271C18.3437 13.1751 18.2322 13.0699 18.0984 12.9418L17.3991 12.2686C16.7285 11.6318 16.3448 11.3189 15.8548 11.0236C15.1138 10.5778 14.2888 10.8008 13.6694 11.6024L13.5441 11.7712C13.5025 11.8295 13.4602 11.8912 13.4146 11.96L13.0231 12.581C12.2848 13.7774 11.8367 14.3224 11.0293 14.7594C10.0349 15.2981 9.22458 15.1862 8.23918 14.6047L7.80131 14.3276L7.43305 14.0899C7.22854 13.9629 7.08235 13.8847 6.92744 13.8197C6.25699 13.5388 5.66126 13.8493 4.83856 14.8245L3.03219 17.0314C2.93464 17.1494 2.83382 17.2713 2.72925 17.3976C3.44602 18.1018 4.44961 18.4968 5.66618 18.4968H14.3328C16.8826 18.4968 18.4968 16.7632 18.4968 14.0833V13.3147ZM4.27108 6.79982C4.27108 5.36374 5.43616 4.19823 6.87167 4.19823C8.30798 4.19823 9.47327 5.36352 9.47327 6.79982C9.47327 8.23612 8.30798 9.40141 6.87167 9.40141C5.43616 9.40141 4.27108 8.2359 4.27108 6.79982ZM7.97004 6.79982C7.97004 6.19373 7.47776 5.70146 6.87167 5.70146C6.26649 5.70146 5.77431 6.19382 5.77431 6.79982C5.77431 7.40582 6.26649 7.89818 6.87167 7.89818C7.47776 7.89818 7.97004 7.40591 7.97004 6.79982Z" fill="#FF6262"/>
</svg>
