<svg width="20" height="20" viewBox="0 0 20 20" fill="none" xmlns="http://www.w3.org/2000/svg">
<path d="M10 3.95801C9.78168 3.95801 9.61473 4.07801 9.40925 4.26801L6.51113 6.98301C6.34846 7.13801 6.25 7.36301 6.25 7.59801C6.25 8.08801 6.60103 8.43301 6.96062 8.43301C7.14041 8.43301 7.32021 8.34801 7.48288 8.19301L10 5.86301L12.5128 8.19301C12.6798 8.34801 12.8553 8.43301 13.0394 8.43301C13.399 8.43301 13.75 8.08801 13.75 7.59801C13.75 7.36301 13.6515 7.13801 13.4846 6.98301L10.5908 4.26801C10.3853 4.07301 10.2183 3.95801 10 3.95801ZM10 16.0413C10.2183 16.0413 10.3853 15.9213 10.5908 15.7263L13.4846 13.0163C13.6515 12.8613 13.75 12.6363 13.75 12.3963C13.75 11.9063 13.399 11.5613 13.0394 11.5613C12.8553 11.5613 12.6798 11.6513 12.5128 11.8013L10 14.1313L7.48288 11.8013C7.32021 11.6513 7.14041 11.5613 6.96062 11.5613C6.60103 11.5613 6.25 11.9063 6.25 12.3963C6.25 12.6363 6.34846 12.8613 6.51113 13.0163L9.40925 15.7263C9.61473 15.9213 9.78168 16.0413 10 16.0413Z" fill="#333333"/>
</svg>
