<svg width="20" height="20" viewBox="0 0 20 20" fill="none" xmlns="http://www.w3.org/2000/svg">
<g clip-path="url(#clip0_570_14727)">
<path d="M10 3.95898C9.78168 3.95898 9.61473 4.07898 9.40925 4.26898L6.51113 6.98398C6.34846 7.13898 6.25 7.36398 6.25 7.59898C6.25 8.08898 6.60103 8.43398 6.96062 8.43398C7.14041 8.43398 7.32021 8.34898 7.48288 8.19398L10 5.86398L12.5128 8.19398C12.6798 8.34898 12.8553 8.43398 13.0394 8.43398C13.399 8.43398 13.75 8.08898 13.75 7.59898C13.75 7.36398 13.6515 7.13898 13.4846 6.98398L10.5908 4.26898C10.3853 4.07398 10.2183 3.95898 10 3.95898ZM10 16.0423C10.2183 16.0423 10.3853 15.9223 10.5908 15.7273L13.4846 13.0173C13.6515 12.8623 13.75 12.6373 13.75 12.3973C13.75 11.9073 13.399 11.5623 13.0394 11.5623C12.8553 11.5623 12.6798 11.6523 12.5128 11.8023L10 14.1323L7.48288 11.8023C7.32021 11.6523 7.14041 11.5623 6.96062 11.5623C6.60103 11.5623 6.25 11.9073 6.25 12.3973C6.25 12.6373 6.34846 12.8623 6.51113 13.0173L9.40925 15.7273C9.61473 15.9223 9.78168 16.0423 10 16.0423Z" fill="#333333"/>
</g>
<defs>
<clipPath id="clip0_570_14727">
<rect width="20" height="20" fill="white"/>
</clipPath>
</defs>
</svg>
