<svg width="24" height="24" viewBox="0 0 24 24" fill="none" xmlns="http://www.w3.org/2000/svg">
<path fill-rule="evenodd" clip-rule="evenodd" d="M16.3345 2.0002H7.66549C4.26791 2.0002 2.00049 4.43279 2.00049 7.9162V16.0842C2.00049 19.5709 4.26186 22.0002 7.66549 22.0002H16.3335C19.7381 22.0002 22.0005 19.5709 22.0005 16.0842V7.9162C22.0005 4.4297 19.7383 2.0002 16.3345 2.0002ZM7.66549 3.5002H16.3345C18.885 3.5002 20.5005 5.23516 20.5005 7.9162V16.0842C20.5005 18.7654 18.8849 20.5002 16.3335 20.5002H7.66549C5.11525 20.5002 3.50049 18.7655 3.50049 16.0842V7.9162C3.50049 5.23857 5.12083 3.5002 7.66549 3.5002ZM11.9998 7.4543C12.414 7.4543 12.7498 7.79008 12.7498 8.2043C12.7498 8.58399 12.4676 8.89779 12.1016 8.94745L11.9898 8.9543C11.5756 8.9543 11.2398 8.61851 11.2398 8.2043C11.2398 7.8246 11.5219 7.51081 11.888 7.46114L11.9998 7.4543ZM11.9898 10.6271C12.3695 10.6271 12.6833 10.9093 12.7329 11.2753L12.7398 11.3771V15.7961C12.7398 16.2103 12.404 16.5461 11.9898 16.5461C11.6101 16.5461 11.2963 16.2639 11.2466 15.8979L11.2398 15.7961V11.3771C11.2398 10.9629 11.5756 10.6271 11.9898 10.6271Z" fill="#200E32"/>
</svg>
