<svg width="24" height="24" viewBox="0 0 24 24" fill="none" xmlns="http://www.w3.org/2000/svg">
<path fill-rule="evenodd" clip-rule="evenodd" d="M2 12.0002C2 6.47798 6.47779 2.0002 12 2.0002C17.5229 2.0002 22 6.47765 22 12.0002C22 17.5227 17.5229 22.0002 12 22.0002C6.47779 22.0002 2 17.5224 2 12.0002ZM20.5 12.0002C20.5 7.30605 16.6944 3.5002 12 3.5002C7.30621 3.5002 3.5 7.30641 3.5 12.0002C3.5 16.694 7.30621 20.5002 12 20.5002C16.6944 20.5002 20.5 16.6943 20.5 12.0002ZM11.9951 7.4543C12.3748 7.4543 12.6886 7.73645 12.7383 8.10253L12.7451 8.2043V12.6233C12.7451 13.0375 12.4093 13.3733 11.9951 13.3733C11.6154 13.3733 11.3016 13.0911 11.2519 12.7251L11.2451 12.6233V8.2043C11.2451 7.79008 11.5809 7.4543 11.9951 7.4543ZM12.7551 15.7961C12.7551 15.3819 12.4193 15.0461 12.0051 15.0461L11.8933 15.0529C11.5273 15.1026 11.2451 15.4164 11.2451 15.7961C11.2451 16.2103 11.5809 16.5461 11.9951 16.5461L12.1069 16.5393C12.4729 16.4896 12.7551 16.1758 12.7551 15.7961Z" fill="#200E32"/>
</svg>
