<svg width="24" height="24" viewBox="0 0 24 24" fill="none" xmlns="http://www.w3.org/2000/svg">
<path fill-rule="evenodd" clip-rule="evenodd" d="M12.3722 2.00005C15.2262 2.00005 17.5542 4.25667 17.6688 7.08262L17.6732 7.3011V8.87696C19.4497 9.49361 20.725 11.1821 20.725 13.1689V17.4579C20.725 19.9668 18.6915 21.9999 16.183 21.9999H8.542C6.03347 21.9999 4 19.9668 4 17.4579V13.1689C4 11.1819 5.27545 9.49335 7.0522 8.87682L7.05221 7.27781C7.06502 4.34982 9.44806 1.9873 12.3722 2.00005ZM16.1732 7.3011V8.6269H8.5522V7.2811L8.558 7.08578C8.66855 5.08056 10.3355 3.49118 12.3689 3.50004C14.471 3.50005 16.1732 5.2023 16.1732 7.3011ZM16.183 10.1269H8.542C6.86184 10.1269 5.5 11.4885 5.5 13.1689V17.4579C5.5 19.1383 6.86184 20.4999 8.542 20.4999H16.183C17.8632 20.4999 19.225 19.1383 19.225 17.4579V13.1689C19.225 11.4885 17.8632 10.1269 16.183 10.1269ZM13.1059 14.1012C13.0562 13.7351 12.7424 13.453 12.3627 13.453C11.9485 13.453 11.6127 13.7888 11.6127 14.203V16.424L11.6195 16.5258C11.6692 16.8918 11.983 17.174 12.3627 17.174C12.7769 17.174 13.1127 16.8382 13.1127 16.424V14.203L13.1059 14.1012Z" fill="#858585"/>
</svg>
