<svg width="24" height="24" viewBox="0 0 24 24" fill="none" xmlns="http://www.w3.org/2000/svg">
<path fill-rule="evenodd" clip-rule="evenodd" d="M21.4936 6.23867C21.3848 3.89122 19.4478 2.022 17.0734 2.022H12.1894L11.9806 2.02683C9.62755 2.13579 7.75438 4.07659 7.75438 6.456V7.389L7.76123 7.49077C7.81089 7.85685 8.12469 8.139 8.50438 8.139C8.9186 8.139 9.25438 7.80322 9.25438 7.389V6.456L9.25936 6.28356C9.34859 4.74298 10.6256 3.522 12.1894 3.522H17.0734L17.2453 3.52697C18.781 3.61591 19.9984 4.88892 19.9984 6.447V17.587L19.9934 17.7594C19.9041 19.3 18.6263 20.522 17.0634 20.522H12.1784L12.0066 20.517C10.472 20.428 9.25438 19.1544 9.25438 17.597V16.655L9.24754 16.5532C9.19788 16.1872 8.88408 15.905 8.50438 15.905C8.09017 15.905 7.75438 16.2408 7.75438 16.655V17.597L7.75949 17.8114C7.87131 20.1552 9.80715 22.022 12.1784 22.022H17.0634L17.2721 22.0172C19.6245 21.9082 21.4984 19.9662 21.4984 17.587V6.447L21.4936 6.23867ZM12.3534 8.57656C12.6191 8.30975 13.0357 8.28469 13.3298 8.50194L13.414 8.57439L16.342 11.4904C16.6096 11.7569 16.6339 12.1749 16.415 12.469L16.4123 12.4721C16.3914 12.5 16.3685 12.5263 16.344 12.551L16.342 12.5532L13.414 15.4692C13.1205 15.7615 12.6457 15.7605 12.3534 15.467C12.0876 15.2002 12.0643 14.7835 12.2828 14.4904L12.3555 14.4064L13.9963 12.7718H3.77148C3.35727 12.7718 3.02148 12.436 3.02148 12.0218C3.02148 11.6421 3.30364 11.3283 3.66971 11.2786L3.77148 11.2718H13.9961L12.3555 9.63722C12.0887 9.3715 12.0637 8.95489 12.2809 8.66083L12.3534 8.57656Z" fill="#200E32"/>
</svg>
