<svg width="24" height="24" viewBox="0 0 24 24" fill="none" xmlns="http://www.w3.org/2000/svg">
<path fill-rule="evenodd" clip-rule="evenodd" d="M11.331 2.0215C13.7102 2.0215 15.6521 3.89543 15.7611 6.24774L15.766 6.4565V7.3895C15.766 7.80371 15.4302 8.1395 15.016 8.1395C14.6363 8.1395 14.3225 7.85735 14.2728 7.49127L14.266 7.3895V6.4565C14.266 4.8936 13.044 3.61576 11.5034 3.52648L11.331 3.5215H6.45597C4.89392 3.5215 3.61623 4.74363 3.52696 6.28408L3.52197 6.4565V17.5865C3.52197 19.1493 4.74388 20.4272 6.28363 20.5165L6.45597 20.5215H11.341C12.8983 20.5215 14.172 19.3039 14.261 17.7693L14.266 17.5975V16.6545C14.266 16.2403 14.6018 15.9045 15.016 15.9045C15.3957 15.9045 15.7095 16.1867 15.7591 16.5527L15.766 16.6545V17.5975C15.766 19.9687 13.8992 21.9046 11.5553 22.0164L11.341 22.0215H6.45597C4.07753 22.0215 2.13581 20.1474 2.0268 17.7952L2.02197 17.5865V6.4565C2.02197 4.07744 3.89573 2.13536 6.24728 2.02633L6.45597 2.0215H11.331ZM22.3282 11.4797C22.4707 11.6162 22.5595 11.8084 22.5595 12.0214C22.5595 12.2365 22.4689 12.4304 22.3239 12.5672L19.4104 15.4687C19.1169 15.761 18.642 15.76 18.3498 15.4665C18.084 15.1997 18.0607 14.783 18.2791 14.4899L18.3519 14.4059L19.992 12.7714H9.76847C9.35426 12.7714 9.01847 12.4356 9.01847 12.0214C9.01847 11.6417 9.30063 11.3279 9.6667 11.2782L9.76847 11.2714H19.9937L18.352 9.63781C18.0852 9.37213 18.06 8.95553 18.2772 8.66143L18.3497 8.57715C18.6153 8.31029 19.0319 8.28516 19.326 8.50236L19.4103 8.57479L22.3282 11.4797Z" fill="#200E32"/>
</svg>
