<svg width="24" height="24" viewBox="0 0 24 24" fill="none" xmlns="http://www.w3.org/2000/svg">
<path fill-rule="evenodd" clip-rule="evenodd" d="M16.3347 2.0002H7.66573C4.26816 2.0002 2.00073 4.43279 2.00073 7.9162V16.0842C2.00073 19.5713 4.26143 22.0002 7.66573 22.0002H16.3337C19.7383 22.0002 22.0007 19.5709 22.0007 16.0842V7.9162C22.0007 4.4297 19.7385 2.0002 16.3347 2.0002ZM7.66573 3.5002H16.3347C18.8852 3.5002 20.5007 5.23516 20.5007 7.9162V16.0842C20.5007 18.7654 18.8851 20.5002 16.3337 20.5002H7.66573C5.11487 20.5002 3.50073 18.7659 3.50073 16.0842V7.9162C3.50073 5.23857 5.12107 3.5002 7.66573 3.5002ZM6.32283 12.0004C6.32283 12.6604 6.85983 13.1974 7.52083 13.1974C8.18183 13.1974 8.71883 12.6604 8.71883 12.0004C8.71883 11.3404 8.18183 10.8024 7.52083 10.8024C6.85983 10.8024 6.32283 11.3404 6.32283 12.0004ZM12.0002 13.1974C11.3392 13.1974 10.8022 12.6604 10.8022 12.0004C10.8022 11.3404 11.3392 10.8024 12.0002 10.8024C12.6612 10.8024 13.1982 11.3404 13.1982 12.0004C13.1982 12.6604 12.6612 13.1974 12.0002 13.1974ZM15.2812 12.0004C15.2812 12.6604 15.8182 13.1974 16.4792 13.1974C17.1402 13.1974 17.6772 12.6604 17.6772 12.0004C17.6772 11.3404 17.1402 10.8024 16.4792 10.8024C15.8182 10.8024 15.2812 11.3404 15.2812 12.0004Z" fill="#200E32"/>
</svg>
