<svg width="24" height="24" viewBox="0 0 24 24" fill="none" xmlns="http://www.w3.org/2000/svg">
<path fill-rule="evenodd" clip-rule="evenodd" d="M12.0002 2.0002C6.47736 2.0002 2.00024 6.47765 2.00024 12.0002C2.00024 17.5227 6.47736 22.0002 12.0002 22.0002C17.5225 22.0002 22.0002 17.5224 22.0002 12.0002C22.0002 6.47798 17.5225 2.0002 12.0002 2.0002ZM12.0002 3.5002C16.694 3.5002 20.5002 7.30641 20.5002 12.0002C20.5002 16.694 16.694 20.5002 12.0002 20.5002C7.30582 20.5002 3.50024 16.6943 3.50024 12.0002C3.50024 7.30605 7.30582 3.5002 12.0002 3.5002ZM6.32274 12.0004C6.32274 12.6604 6.85974 13.1974 7.52074 13.1974C8.18174 13.1974 8.71874 12.6604 8.71874 12.0004C8.71874 11.3404 8.18174 10.8024 7.52074 10.8024C6.85974 10.8024 6.32274 11.3404 6.32274 12.0004ZM12.0002 13.1974C11.3392 13.1974 10.8022 12.6604 10.8022 12.0004C10.8022 11.3404 11.3392 10.8024 12.0002 10.8024C12.6612 10.8024 13.1982 11.3404 13.1982 12.0004C13.1982 12.6604 12.6612 13.1974 12.0002 13.1974ZM15.2812 12.0004C15.2812 12.6604 15.8182 13.1974 16.4792 13.1974C17.1402 13.1974 17.6772 12.6604 17.6772 12.0004C17.6772 11.3404 17.1402 10.8024 16.4792 10.8024C15.8182 10.8024 15.2812 11.3404 15.2812 12.0004Z" fill="#200E32"/>
</svg>
