<svg width="46" height="46" viewBox="0 0 46 46" fill="none" xmlns="http://www.w3.org/2000/svg">
<rect x="1" y="9" width="36" height="36" rx="18" fill="white"/>
<rect x="1" y="9" width="36" height="36" rx="18" stroke="#FF6262" stroke-width="2"/>
<path fill-rule="evenodd" clip-rule="evenodd" d="M19.058 17.0003C15.5464 16.9862 12.2855 18.8071 10.4606 21.8002C8.63541 24.7937 8.51288 28.5227 10.1377 31.6292L10.3215 31.9876C10.3917 32.1193 10.4053 32.2614 10.3646 32.3927C10.102 33.0866 9.87136 33.8358 9.6873 34.597L9.66776 34.761C9.66776 35.5264 10.0762 36.0523 10.8867 36.0344L11.0217 36.0181C11.758 35.8555 12.4831 35.646 13.1926 35.391C13.2867 35.3672 13.4407 35.3764 13.5797 35.4333L14.2622 35.8195C14.2638 35.8243 14.2649 35.8279 14.2721 35.832L14.3179 35.8481C17.9929 37.7804 22.4812 37.2474 25.5997 34.508C28.7187 31.7682 29.8199 27.3902 28.3675 23.504C26.9153 19.6181 23.2115 17.0309 19.058 17.0003ZM18.7675 18.3991L19.0484 18.3947C22.6231 18.4219 25.8109 20.6487 27.0605 23.9924C28.31 27.3358 27.3626 31.1022 24.6788 33.4597L24.4587 33.6467C21.8626 35.7781 18.2582 36.2077 15.2327 34.7469L14.945 34.6027L14.9573 34.6043L14.9391 34.5993L14.5168 34.357C14.3647 34.271 14.2441 34.206 14.1469 34.1591C13.6837 33.9682 13.2135 33.94 12.7713 34.0618L12.3527 34.2056C12.0761 34.297 11.8037 34.3795 11.5327 34.4542L11.1377 34.5574L11.0436 34.925C11.2142 34.2193 11.428 33.5247 11.6839 32.8452C11.8485 32.3184 11.7982 31.7906 11.5575 31.3403L11.3766 30.9874C9.97627 28.31 10.0817 25.102 11.652 22.5266C13.1734 20.0313 15.8549 18.4824 18.7675 18.3991ZM13.4746 27.0003C13.4746 26.3701 13.9859 25.8597 14.616 25.8597C15.2461 25.8597 15.7573 26.3701 15.7573 27.0003C15.7573 27.6305 15.2461 28.1409 14.616 28.1409C13.9859 28.1409 13.4746 27.6305 13.4746 27.0003ZM17.9115 27.0003C17.9115 26.3701 18.4227 25.8597 19.0528 25.8597C19.6829 25.8597 20.1942 26.3701 20.1942 27.0003C20.1942 27.6305 19.6829 28.1409 19.0528 28.1409C18.4227 28.1409 17.9115 27.6305 17.9115 27.0003ZM23.4897 25.8597C22.8596 25.8597 22.3484 26.3701 22.3484 27.0003C22.3484 27.6305 22.8596 28.1409 23.4897 28.1409C24.1198 28.1409 24.6311 27.6305 24.6311 27.0003C24.6311 26.3701 24.1198 25.8597 23.4897 25.8597Z" fill="#FF6262"/>
<rect x="25" y="1" width="20" height="20" rx="10" fill="white"/>
<rect x="25" y="1" width="20" height="20" rx="10" stroke="#FF6262" stroke-width="2"/>
<path d="M34.9995 15.1094C34.437 15.1094 33.937 15.013 33.4995 14.8203C33.0646 14.6276 32.7209 14.3594 32.4683 14.0156C32.2157 13.6719 32.0815 13.2747 32.0659 12.8242H33.5347C33.5477 13.0404 33.6193 13.2292 33.7495 13.3906C33.8797 13.5495 34.0529 13.6732 34.269 13.7617C34.4852 13.8503 34.7274 13.8945 34.9956 13.8945C35.2821 13.8945 35.536 13.8451 35.7573 13.7461C35.9787 13.6445 36.1519 13.5039 36.2769 13.3242C36.4019 13.1445 36.4631 12.9375 36.4604 12.7031C36.4631 12.4609 36.4006 12.2474 36.2729 12.0625C36.1453 11.8776 35.9604 11.7331 35.7183 11.6289C35.4787 11.5247 35.1896 11.4727 34.8511 11.4727H34.144V10.3555H34.8511C35.1297 10.3555 35.3732 10.3073 35.5815 10.2109C35.7925 10.1146 35.9578 9.97917 36.0776 9.80469C36.1974 9.6276 36.256 9.42318 36.2534 9.19141C36.256 8.96484 36.2052 8.76823 36.1011 8.60156C35.9995 8.43229 35.855 8.30078 35.6675 8.20703C35.4826 8.11328 35.2651 8.06641 35.0151 8.06641C34.7703 8.06641 34.5438 8.11068 34.3354 8.19922C34.1271 8.28776 33.9591 8.41406 33.8315 8.57813C33.7039 8.73958 33.6362 8.93229 33.6284 9.15625H32.2339C32.2443 8.70833 32.3732 8.3151 32.6206 7.97656C32.8706 7.63542 33.2039 7.36979 33.6206 7.17969C34.0373 6.98698 34.5047 6.89062 35.0229 6.89062C35.5568 6.89062 36.0203 6.99089 36.4136 7.19141C36.8094 7.38932 37.1154 7.65625 37.3315 7.99219C37.5477 8.32812 37.6558 8.69922 37.6558 9.10547C37.6584 9.55599 37.5256 9.93359 37.2573 10.2383C36.9917 10.543 36.6427 10.7422 36.2104 10.8359V10.8984C36.7729 10.9766 37.2039 11.1849 37.5034 11.5234C37.8055 11.8594 37.9552 12.2773 37.9526 12.7773C37.9526 13.2253 37.825 13.6263 37.5698 13.9805C37.3172 14.332 36.9683 14.6081 36.5229 14.8086C36.0802 15.0091 35.5724 15.1094 34.9995 15.1094Z" fill="#FF6262"/>
</svg>
