<svg width="38" height="38" viewBox="0 0 38 38" fill="none" xmlns="http://www.w3.org/2000/svg">
<rect x="1" y="1" width="36" height="36" rx="18" stroke="#FF6262" stroke-width="2"/>
<path fill-rule="evenodd" clip-rule="evenodd" d="M19.0361 9H18.9648C15.5956 9 12.5065 11.4446 12.2068 14.681C12.1869 14.9125 12.1732 15.1491 12.1644 15.4039L12.1521 15.9997L12.1497 16.534L12.1647 16.4731C12.0257 17.151 11.7052 17.7799 11.2365 18.2938L11.1694 18.3802C10.768 18.9898 10.5374 19.6955 10.5017 20.4242L10.5009 20.6624C10.4804 21.6208 10.8088 22.5691 11.4266 23.3223C12.2644 24.2069 13.349 24.7346 14.513 24.8466C17.49 25.1699 20.502 25.1699 23.4873 24.8457C24.6434 24.7393 25.7311 24.2101 26.5338 23.3582C27.1399 22.6331 27.4707 21.763 27.499 20.862L27.5 20.4587C27.4668 19.698 27.2348 18.9917 26.8286 18.3847L26.7669 18.3055L26.6162 18.1282C26.2776 17.7052 26.0303 17.218 25.8896 16.6969L25.845 16.5098L25.8358 16.3135C25.833 16.2253 25.8317 16.1274 25.8312 16.0052L25.8311 15.3321C25.8288 15.0746 25.8212 14.8915 25.8034 14.6854C25.4934 11.4429 22.4034 9 19.0361 9ZM18.9648 10.3953H19.0361C21.7336 10.3953 24.1944 12.3408 24.4307 14.8133C24.4447 14.9756 24.4509 15.1304 24.4528 15.3605L24.4555 16.2651C24.4585 16.4098 24.4642 16.5301 24.4739 16.6655L24.4868 16.7582L24.5517 17.034C24.744 17.7635 25.0893 18.4441 25.5647 19.0309L25.7026 19.1926L25.6873 19.1672C25.951 19.5613 26.1013 20.0186 26.1223 20.4901L26.1216 20.6536C26.1375 21.3097 25.9199 21.933 25.5084 22.4267C24.9645 23.002 24.1871 23.3802 23.3514 23.4572C20.4527 23.7719 17.5393 23.7719 14.6517 23.4583C13.8068 23.377 13.0288 22.9985 12.4537 22.3931C12.0809 21.9356 11.8657 21.3142 11.8792 20.6774L11.8794 20.4587L11.8968 20.2682C11.9389 19.9495 12.0454 19.6265 12.2104 19.3291L12.2942 19.1905C12.9078 18.5004 13.3289 17.6611 13.5144 16.7567L13.5288 16.6149L13.5353 15.6956L13.5514 15.2292C13.5587 15.0821 13.568 14.9423 13.5797 14.8068C13.808 12.3409 16.2665 10.3953 18.9648 10.3953ZM12.2942 19.1905C12.2793 19.2072 12.2644 19.2238 12.2493 19.2404L12.2986 19.1833L12.2942 19.1905ZM21.608 26.6906C21.3114 26.4491 20.8775 26.4967 20.6389 26.7969C20.5355 26.927 20.4158 27.0437 20.2826 27.1443C19.8307 27.4986 19.2669 27.6564 18.7064 27.5896C18.1467 27.523 17.6379 27.2381 17.2927 26.7995C17.0555 26.4981 16.6219 26.4484 16.3242 26.6885C16.0265 26.9286 15.9774 27.3676 16.2146 27.6689C16.787 28.3962 17.6258 28.8659 18.5453 28.9754C19.464 29.0849 20.3891 28.826 21.1167 28.255C21.3327 28.0922 21.5366 27.8935 21.7129 27.6715C21.9515 27.3713 21.9045 26.9321 21.608 26.6906Z" fill="#FF6262"/>
</svg>
