<svg width="70" height="70" viewBox="0 0 70 70" fill="none" xmlns="http://www.w3.org/2000/svg">
<g filter="url(#filter0_d_60_10015)">
<rect x="12" y="16" width="38" height="38" rx="19" fill="#FF6262"/>
<path fill-rule="evenodd" clip-rule="evenodd" d="M31.058 25.0002C27.5464 24.9861 24.2855 26.807 22.4606 29.8001C20.6354 32.7935 20.5129 36.5226 22.1377 39.6291L22.3215 39.9875C22.3917 40.1192 22.4053 40.2613 22.3646 40.3926C22.102 41.0864 21.8714 41.8357 21.6873 42.5969L21.6678 42.7609C21.6678 43.5263 22.0762 44.0522 22.8867 44.0342L23.0217 44.018C23.758 43.8554 24.4831 43.6459 25.1926 43.3908C25.2867 43.3671 25.4407 43.3763 25.5797 43.4332L26.2622 43.8194C26.2638 43.8242 26.2649 43.8277 26.2721 43.8319L26.3179 43.8479C29.9929 45.7803 34.4812 45.2472 37.5997 42.5078C40.7187 39.7681 41.8199 35.3901 40.3675 31.5038C38.9153 27.618 35.2115 25.0307 31.058 25.0002ZM30.7675 26.399L31.0484 26.3946C34.6231 26.4218 37.8109 28.6486 39.0605 31.9923C40.31 35.3357 39.3626 39.1021 36.6788 41.4595L36.4587 41.6466C33.8626 43.778 30.2582 44.2076 27.2327 42.7467L26.945 42.6025L26.9573 42.6042L26.9391 42.5992L26.5168 42.3569C26.3647 42.2709 26.2441 42.2058 26.1469 42.159C25.6837 41.9681 25.2135 41.9399 24.7713 42.0617L24.3527 42.2055C24.0761 42.2968 23.8037 42.3794 23.5327 42.4541L23.1377 42.5573L23.0436 42.9249C23.2142 42.2192 23.428 41.5246 23.6839 40.8451C23.8485 40.3182 23.7982 39.7905 23.5575 39.3402L23.3766 38.9873C21.9763 36.3098 22.0817 33.1019 23.652 30.5265C25.1734 28.0312 27.8549 26.4823 30.7675 26.399ZM25.4746 35.0002C25.4746 34.37 25.9859 33.8595 26.616 33.8595C27.2461 33.8595 27.7573 34.37 27.7573 35.0002C27.7573 35.6304 27.2461 36.1408 26.616 36.1408C25.9859 36.1408 25.4746 35.6304 25.4746 35.0002ZM29.9115 35.0002C29.9115 34.37 30.4227 33.8595 31.0528 33.8595C31.6829 33.8595 32.1942 34.37 32.1942 35.0002C32.1942 35.6304 31.6829 36.1408 31.0528 36.1408C30.4227 36.1408 29.9115 35.6304 29.9115 35.0002ZM35.4897 33.8595C34.8596 33.8595 34.3484 34.37 34.3484 35.0002C34.3484 35.6304 34.8596 36.1408 35.4897 36.1408C36.1198 36.1408 36.6311 35.6304 36.6311 35.0002C36.6311 34.37 36.1198 33.8595 35.4897 33.8595Z" fill="white"/>
<rect x="36" y="8" width="22" height="22" rx="11" fill="white"/>
<path d="M46.9995 23.1094C46.437 23.1094 45.937 23.013 45.4995 22.8203C45.0646 22.6276 44.7209 22.3594 44.4683 22.0156C44.2157 21.6719 44.0815 21.2747 44.0659 20.8242H45.5347C45.5477 21.0404 45.6193 21.2292 45.7495 21.3906C45.8797 21.5495 46.0529 21.6732 46.269 21.7617C46.4852 21.8503 46.7274 21.8945 46.9956 21.8945C47.2821 21.8945 47.536 21.8451 47.7573 21.7461C47.9787 21.6445 48.1519 21.5039 48.2769 21.3242C48.4019 21.1445 48.4631 20.9375 48.4604 20.7031C48.4631 20.4609 48.4006 20.2474 48.2729 20.0625C48.1453 19.8776 47.9604 19.7331 47.7183 19.6289C47.4787 19.5247 47.1896 19.4727 46.8511 19.4727H46.144V18.3555H46.8511C47.1297 18.3555 47.3732 18.3073 47.5815 18.2109C47.7925 18.1146 47.9578 17.9792 48.0776 17.8047C48.1974 17.6276 48.256 17.4232 48.2534 17.1914C48.256 16.9648 48.2052 16.7682 48.1011 16.6016C47.9995 16.4323 47.855 16.3008 47.6675 16.207C47.4826 16.1133 47.2651 16.0664 47.0151 16.0664C46.7703 16.0664 46.5438 16.1107 46.3354 16.1992C46.1271 16.2878 45.9591 16.4141 45.8315 16.5781C45.7039 16.7396 45.6362 16.9323 45.6284 17.1562H44.2339C44.2443 16.7083 44.3732 16.3151 44.6206 15.9766C44.8706 15.6354 45.2039 15.3698 45.6206 15.1797C46.0373 14.987 46.5047 14.8906 47.0229 14.8906C47.5568 14.8906 48.0203 14.9909 48.4136 15.1914C48.8094 15.3893 49.1154 15.6562 49.3315 15.9922C49.5477 16.3281 49.6558 16.6992 49.6558 17.1055C49.6584 17.556 49.5256 17.9336 49.2573 18.2383C48.9917 18.543 48.6427 18.7422 48.2104 18.8359V18.8984C48.7729 18.9766 49.2039 19.1849 49.5034 19.5234C49.8055 19.8594 49.9552 20.2773 49.9526 20.7773C49.9526 21.2253 49.825 21.6263 49.5698 21.9805C49.3172 22.332 48.9683 22.6081 48.5229 22.8086C48.0802 23.0091 47.5724 23.1094 46.9995 23.1094Z" fill="#FF6262"/>
</g>
<defs>
<filter id="filter0_d_60_10015" x="0" y="0" width="70" height="70" filterUnits="userSpaceOnUse" color-interpolation-filters="sRGB">
<feFlood flood-opacity="0" result="BackgroundImageFix"/>
<feColorMatrix in="SourceAlpha" type="matrix" values="0 0 0 0 0 0 0 0 0 0 0 0 0 0 0 0 0 0 127 0" result="hardAlpha"/>
<feOffset dy="4"/>
<feGaussianBlur stdDeviation="6"/>
<feColorMatrix type="matrix" values="0 0 0 0 1 0 0 0 0 0.65 0 0 0 0 0.65 0 0 0 0.6 0"/>
<feBlend mode="normal" in2="BackgroundImageFix" result="effect1_dropShadow_60_10015"/>
<feBlend mode="normal" in="SourceGraphic" in2="effect1_dropShadow_60_10015" result="shape"/>
</filter>
</defs>
</svg>
