<svg width="62" height="62" viewBox="0 0 62 62" fill="none" xmlns="http://www.w3.org/2000/svg">
<g filter="url(#filter0_d_60_10016)">
<rect x="12" y="8" width="38" height="38" rx="19" fill="#FF6262"/>
<path fill-rule="evenodd" clip-rule="evenodd" d="M31.0361 17H30.9648C27.5956 17 24.5065 19.4446 24.2068 22.681C24.1869 22.9125 24.1732 23.1491 24.1644 23.4039L24.1521 23.9997L24.1497 24.534L24.1647 24.4731C24.0257 25.151 23.7052 25.7799 23.2365 26.2938L23.1694 26.3802C22.768 26.9898 22.5374 27.6955 22.5017 28.4242L22.5009 28.6624C22.4804 29.6208 22.8088 30.5691 23.4266 31.3223C24.2644 32.2069 25.349 32.7346 26.513 32.8466C29.49 33.1699 32.502 33.1699 35.4873 32.8457C36.6434 32.7393 37.7311 32.2101 38.5338 31.3582C39.1399 30.6331 39.4707 29.763 39.499 28.862L39.5 28.4587C39.4668 27.698 39.2348 26.9917 38.8286 26.3847L38.7669 26.3055L38.6162 26.1282C38.2776 25.7052 38.0303 25.218 37.8896 24.6969L37.845 24.5098L37.8358 24.3135C37.833 24.2253 37.8317 24.1274 37.8312 24.0052L37.8311 23.3321C37.8288 23.0746 37.8212 22.8915 37.8034 22.6854C37.4934 19.4429 34.4034 17 31.0361 17ZM30.9648 18.3953H31.0361C33.7336 18.3953 36.1944 20.3408 36.4307 22.8133C36.4447 22.9756 36.4509 23.1304 36.4528 23.3605L36.4555 24.2651C36.4585 24.4098 36.4642 24.5301 36.4739 24.6655L36.4868 24.7582L36.5517 25.034C36.744 25.7635 37.0893 26.4441 37.5647 27.0309L37.7026 27.1926L37.6873 27.1672C37.951 27.5613 38.1013 28.0186 38.1223 28.4901L38.1216 28.6536C38.1375 29.3097 37.9199 29.933 37.5084 30.4267C36.9645 31.002 36.1871 31.3802 35.3514 31.4572C32.4527 31.7719 29.5393 31.7719 26.6517 31.4583C25.8068 31.377 25.0288 30.9985 24.4537 30.3931C24.0809 29.9356 23.8657 29.3142 23.8792 28.6774L23.8794 28.4587L23.8968 28.2682C23.9389 27.9495 24.0454 27.6265 24.2104 27.3291L24.2942 27.1905C24.9078 26.5004 25.3289 25.6611 25.5144 24.7567L25.5288 24.6149L25.5353 23.6956L25.5514 23.2292C25.5587 23.0821 25.568 22.9423 25.5797 22.8068C25.808 20.3409 28.2665 18.3953 30.9648 18.3953ZM24.2942 27.1905C24.2793 27.2072 24.2644 27.2238 24.2493 27.2404L24.2986 27.1833L24.2942 27.1905ZM33.608 34.6906C33.3114 34.4491 32.8775 34.4967 32.6389 34.7969C32.5355 34.927 32.4158 35.0437 32.2826 35.1443C31.8307 35.4986 31.2669 35.6564 30.7064 35.5896C30.1467 35.523 29.6379 35.2381 29.2927 34.7995C29.0555 34.4981 28.6219 34.4484 28.3242 34.6885C28.0265 34.9286 27.9774 35.3676 28.2146 35.6689C28.787 36.3962 29.6258 36.8659 30.5453 36.9754C31.464 37.0849 32.3891 36.826 33.1167 36.255C33.3327 36.0922 33.5366 35.8935 33.7129 35.6715C33.9515 35.3713 33.9045 34.9321 33.608 34.6906Z" fill="white"/>
</g>
<defs>
<filter id="filter0_d_60_10016" x="0" y="0" width="62" height="62" filterUnits="userSpaceOnUse" color-interpolation-filters="sRGB">
<feFlood flood-opacity="0" result="BackgroundImageFix"/>
<feColorMatrix in="SourceAlpha" type="matrix" values="0 0 0 0 0 0 0 0 0 0 0 0 0 0 0 0 0 0 127 0" result="hardAlpha"/>
<feOffset dy="4"/>
<feGaussianBlur stdDeviation="6"/>
<feColorMatrix type="matrix" values="0 0 0 0 1 0 0 0 0 0.65 0 0 0 0 0.65 0 0 0 0.6 0"/>
<feBlend mode="normal" in2="BackgroundImageFix" result="effect1_dropShadow_60_10016"/>
<feBlend mode="normal" in="SourceGraphic" in2="effect1_dropShadow_60_10016" result="shape"/>
</filter>
</defs>
</svg>
