<svg width="24" height="24" viewBox="0 0 24 24" fill="none" xmlns="http://www.w3.org/2000/svg">
<path fill-rule="evenodd" clip-rule="evenodd" d="M14.6062 2.0119C14.5632 2.00421 14.5188 2.0002 14.4735 2.0002C14.4283 2.0002 14.3839 2.00421 14.3409 2.0119H8.08424C5.59695 2.0119 3.50024 4.02973 3.50024 6.4909V17.2279C3.50024 19.8254 5.50109 21.8649 8.08424 21.8649H16.0722C18.5279 21.8649 20.5522 19.7229 20.5522 17.2279V8.0379C20.5522 7.84426 20.4773 7.65812 20.3432 7.51844L15.2772 2.24244C15.1358 2.09516 14.9404 2.0119 14.7362 2.0119H14.6062ZM13.7235 3.5111L8.08424 3.5119C6.41278 3.5119 5.00024 4.8713 5.00024 6.4909V17.2279C5.00024 19.0034 6.336 20.3649 8.08424 20.3649H16.0722C17.68 20.3649 19.0522 18.9128 19.0522 17.2279L19.052 8.98328L18.1754 8.98627C17.8419 8.98586 17.4626 8.98516 17.041 8.9842C15.2706 8.98046 13.8263 7.59367 13.7288 5.8476L13.7235 5.6592V3.5111ZM18.231 7.48404L17.0443 7.4842C16.0379 7.48207 15.2235 6.66576 15.2235 5.6592V4.35205L18.231 7.48404ZM10.8905 11.256V16.0136L10.8974 16.1154C10.9471 16.4814 11.2608 16.7636 11.6405 16.7636C12.0548 16.7636 12.3905 16.4278 12.3905 16.0136V11.2567L13.9477 12.8204L14.0317 12.8932C14.3248 13.1117 14.7415 13.0884 15.0084 12.8226C15.3019 12.5304 15.3029 12.0555 15.0106 11.762L12.173 8.91243C12.1468 8.88601 12.1187 8.86152 12.0888 8.83922L12.0874 8.83799C11.7933 8.61901 11.3751 8.64338 11.1086 8.91108L8.2706 11.7621L8.19818 11.8464C7.98099 12.1405 8.00615 12.5571 8.27303 12.8227L8.35731 12.8952C8.65142 13.1123 9.06803 13.0872 9.33368 12.8203L10.8905 11.256Z" fill="#200E32"/>
</svg>
