<svg width="24" height="24" viewBox="0 0 24 24" fill="none" xmlns="http://www.w3.org/2000/svg">
<path fill-rule="evenodd" clip-rule="evenodd" d="M14.6065 2.0119C14.5634 2.00421 14.5191 2.0002 14.4738 2.0002C14.4285 2.0002 14.3842 2.00421 14.3411 2.0119H7.97851C5.50498 2.0119 3.49951 4.017 3.49951 6.4909V17.3399C3.49951 19.909 5.57556 21.8649 8.18951 21.8649H16.0725C18.541 21.8649 20.5515 19.8201 20.5515 17.3399V8.0379C20.5515 7.84428 20.4766 7.65817 20.3426 7.5185L15.2775 2.2425C15.1361 2.09518 14.9407 2.0119 14.7365 2.0119H14.6065ZM13.7238 3.5111L7.97851 3.5119C6.33335 3.5119 4.99951 4.84549 4.99951 6.4909V17.3399C4.99951 19.0599 6.38466 20.3649 8.18951 20.3649H16.0725C17.7068 20.3649 19.0515 18.9973 19.0515 17.3399L19.051 8.98328L18.1754 8.98627C17.8417 8.98586 17.4622 8.98516 17.0402 8.9842C15.2707 8.98046 13.8265 7.59348 13.7291 5.84759L13.7238 5.6592V3.5111ZM18.2301 7.48404L17.0435 7.4842C16.038 7.48207 15.2238 6.66565 15.2238 5.6592V4.35254L18.2301 7.48404ZM9.57998 10.6513C9.84625 10.385 10.2629 10.3608 10.5565 10.5787L10.6406 10.6513L11.8434 11.854L13.0462 10.6513C13.3391 10.3584 13.8139 10.3584 14.1068 10.6513C14.3731 10.9175 14.3973 11.3342 14.1795 11.6278L14.1068 11.7119L12.9041 12.9147L14.1066 14.1173C14.3995 14.4102 14.3995 14.885 14.1066 15.1779C13.8404 15.4442 13.4237 15.4684 13.1301 15.2505L13.046 15.1779L11.8434 13.9754L10.6408 15.1779C10.3479 15.4708 9.87308 15.4708 9.58018 15.1779C9.31392 14.9117 9.28971 14.495 9.50756 14.2014L9.58018 14.1173L10.7828 12.9147L9.57998 11.7119C9.28709 11.419 9.28709 10.9442 9.57998 10.6513Z" fill="#200E32"/>
</svg>
