<svg width="24" height="24" viewBox="0 0 24 24" fill="none" xmlns="http://www.w3.org/2000/svg">
<path fill-rule="evenodd" clip-rule="evenodd" d="M14.6062 2.0119C14.5632 2.00421 14.5188 2.0002 14.4735 2.0002C14.4283 2.0002 14.3839 2.00421 14.3409 2.0119H8.08424C5.59695 2.0119 3.50024 4.02973 3.50024 6.4909V17.3399C3.50024 19.9221 5.48569 21.8649 8.08424 21.8649H16.0722C18.5408 21.8649 20.5522 19.8199 20.5522 17.3399V8.0379C20.5522 7.84426 20.4773 7.65812 20.3432 7.51844L15.2772 2.24244C15.1358 2.09516 14.9404 2.0119 14.7362 2.0119H14.6062ZM13.7235 3.5111L8.08424 3.5119C6.41278 3.5119 5.00024 4.8713 5.00024 6.4909V17.3399C5.00024 19.0863 6.30691 20.3649 8.08424 20.3649H16.0722C17.7068 20.3649 19.0522 18.997 19.0522 17.3399L19.052 8.98328L18.1754 8.98627C17.8419 8.98586 17.4626 8.98516 17.041 8.9842C15.2706 8.98046 13.8263 7.59367 13.7288 5.8476L13.7235 5.6592V3.5111ZM18.231 7.48404L17.0443 7.4842C16.0379 7.48207 15.2235 6.66576 15.2235 5.6592V4.35205L18.231 7.48404ZM14.2943 12.1642C14.7086 12.1642 15.0443 12.5 15.0443 12.9142C15.0443 13.2939 14.7622 13.6077 14.3961 13.6574L14.2943 13.6642H12.5936V15.3654C12.5936 15.7796 12.2579 16.1154 11.8436 16.1154C11.4639 16.1154 11.1502 15.8332 11.1005 15.4672L11.0936 15.3654V13.6642H9.39334C8.97913 13.6642 8.64334 13.3284 8.64334 12.9142C8.64334 12.5345 8.9255 12.2207 9.29157 12.171L9.39334 12.1642H11.0936V10.4644C11.0936 10.0502 11.4294 9.7144 11.8436 9.7144C12.2233 9.7144 12.5371 9.99655 12.5868 10.3626L12.5936 10.4644V12.1642H14.2943Z" fill="#200E32"/>
</svg>
