<svg width="24" height="24" viewBox="0 0 24 24" fill="none" xmlns="http://www.w3.org/2000/svg">
<path fill-rule="evenodd" clip-rule="evenodd" d="M14.6067 2.0119C14.5637 2.00421 14.5193 2.0002 14.4741 2.0002C14.4288 2.0002 14.3844 2.00421 14.3414 2.0119H8.08376C5.59646 2.0119 3.49976 4.02973 3.49976 6.4909V17.2039C3.49976 19.8045 5.50435 21.8649 8.08376 21.8649H16.0728C18.5261 21.8649 20.5518 19.703 20.5518 17.2039V8.0379C20.5518 7.84428 20.4769 7.65817 20.3428 7.5185L15.2778 2.2425C15.1364 2.09518 14.941 2.0119 14.7368 2.0119H14.6067ZM13.7241 3.5111L8.08376 3.5119C6.41229 3.5119 4.99976 4.8713 4.99976 6.4909V17.2039C4.99976 18.9851 6.34214 20.3649 8.08376 20.3649H16.0728C17.675 20.3649 19.0518 18.8956 19.0518 17.2039L19.0511 8.98328L18.1756 8.98627C17.842 8.98586 17.4625 8.98516 17.0405 8.9842C15.2709 8.98046 13.8268 7.59348 13.7293 5.84759L13.7241 5.6592V3.5111ZM18.2303 7.48404L17.0438 7.4842C16.0383 7.48207 15.2241 6.66565 15.2241 5.6592V4.35264L18.2303 7.48404ZM14.2841 14.8078C14.6983 14.8078 15.0341 15.1436 15.0341 15.5578C15.0341 15.9375 14.7519 16.2513 14.3858 16.301L14.2841 16.3078H8.88706C8.47284 16.3078 8.13706 15.972 8.13706 15.5578C8.13706 15.1781 8.41921 14.8643 8.78529 14.8146L8.88706 14.8078H14.2841ZM12.9926 10.6056C12.9926 10.1914 12.6568 9.8556 12.2426 9.8556H8.88656L8.78479 9.86244C8.41871 9.91211 8.13656 10.2259 8.13656 10.6056C8.13656 11.0198 8.47234 11.3556 8.88656 11.3556H12.2426L12.3443 11.3488C12.7104 11.2991 12.9926 10.9853 12.9926 10.6056Z" fill="#200E32"/>
</svg>
