<svg width="24" height="24" viewBox="0 0 24 24" fill="none" xmlns="http://www.w3.org/2000/svg">
<path fill-rule="evenodd" clip-rule="evenodd" d="M16.3345 2.0002H7.66549C4.26791 2.0002 2.00049 4.43279 2.00049 7.9162V16.0842C2.00049 19.5709 4.26186 22.0002 7.66549 22.0002H16.3335C19.7381 22.0002 22.0005 19.5709 22.0005 16.0842V7.9162C22.0005 4.4297 19.7383 2.0002 16.3345 2.0002ZM7.66549 3.5002H16.3345C18.885 3.5002 20.5005 5.23516 20.5005 7.9162V16.0842C20.5005 18.7654 18.8849 20.5002 16.3335 20.5002H7.66549C5.11525 20.5002 3.50049 18.7655 3.50049 16.0842V7.9162C3.50049 5.23857 5.12083 3.5002 7.66549 3.5002ZM8.84039 9.3982C7.40424 9.3982 6.23939 10.5639 6.23939 12.0002C6.23939 13.4365 7.40424 14.6022 8.84039 14.6022C10.0165 14.6022 11.0106 13.8213 11.3326 12.7502L13.4317 12.7501V13.8517L13.4385 13.9535C13.4882 14.3195 13.802 14.6017 14.1817 14.6017C14.5959 14.6017 14.9317 14.2659 14.9317 13.8517V12.75L16.2601 12.75L16.2604 13.8522L16.2672 13.954C16.3169 14.32 16.6307 14.6022 17.0104 14.6022C17.4246 14.6022 17.7604 14.2664 17.7604 13.8522V12.0002L17.7535 11.8984C17.7039 11.5324 17.3901 11.2502 17.0104 11.2502H14.2093C14.2002 11.2499 14.1909 11.2497 14.1817 11.2497C14.1724 11.2497 14.1632 11.2499 14.1541 11.2502H11.3326C11.0105 10.179 10.0165 9.3982 8.84039 9.3982ZM8.84039 10.8982C9.44877 10.8982 9.94239 11.392 9.94239 12.0002C9.94239 12.6084 9.44877 13.1022 8.84039 13.1022C8.23292 13.1022 7.73939 12.6083 7.73939 12.0002C7.73939 11.3921 8.23292 10.8982 8.84039 10.8982Z" fill="#200E32"/>
</svg>
