<svg width="24" height="24" viewBox="0 0 24 24" fill="none" xmlns="http://www.w3.org/2000/svg">
<path fill-rule="evenodd" clip-rule="evenodd" d="M21.7046 4.59146C22.0162 3.1858 20.709 1.9174 19.2937 2.327L3.63713 6.88274L3.48604 6.93297C2.01645 7.48604 1.79097 9.53278 3.16744 10.3802L9.64297 14.366L13.5387 20.8201L13.6263 20.9533C14.5395 22.2328 16.5618 21.9229 17.0228 20.3719L21.668 4.73243L21.7046 4.59146ZM19.7846 3.75315C20.0734 3.72214 20.3202 4.00304 20.2303 4.30466L15.585 19.9447L15.5545 20.0214C15.4093 20.3069 14.9985 20.3359 14.823 20.045L11.135 13.936L16.3875 8.64967L16.4598 8.56531C16.6767 8.27098 16.6511 7.8544 16.3839 7.58902L16.2996 7.51668C16.0052 7.29981 15.5887 7.3254 15.3233 7.59255L10.078 12.872L3.95374 9.10276L3.88762 9.05311C3.64979 8.83644 3.72984 8.41773 4.05573 8.32314L19.7117 3.76757L19.7846 3.75315Z" fill="#200E32"/>
</svg>
