<svg width="24" height="24" viewBox="0 0 24 24" fill="none" xmlns="http://www.w3.org/2000/svg">
<path fill-rule="evenodd" clip-rule="evenodd" d="M21.4548 4.34252C21.7664 2.93685 20.4592 1.66846 19.0439 2.07805L3.38738 6.63379L3.23628 6.68402C1.7667 7.23709 1.54121 9.28384 2.91768 10.1312L9.39322 14.1171L13.289 20.5711L13.3765 20.7044C14.2898 21.9839 16.312 21.674 16.7731 20.123L21.4182 4.48348L21.4548 4.34252ZM19.5349 3.5042C19.8237 3.4732 20.0704 3.7541 19.9805 4.05571L15.3352 19.6957L15.3047 19.7724C15.1596 20.0579 14.7488 20.087 14.5732 19.7961L10.8852 13.6871L16.1377 8.40073L16.2101 8.31637C16.4269 8.02203 16.4013 7.60545 16.1342 7.34007L16.0498 7.26774C15.7555 7.05086 15.3389 7.07645 15.0735 7.3436L9.82822 12.6231L3.70398 8.85381L3.63786 8.80416C3.40003 8.5875 3.48008 8.16879 3.80598 8.0742L19.4619 3.51862L19.5349 3.5042Z" fill="#FF6262"/>
</svg>
