<svg width="24" height="24" viewBox="0 0 24 24" fill="none" xmlns="http://www.w3.org/2000/svg">
<path fill-rule="evenodd" clip-rule="evenodd" d="M5.421 20.7C5.685 21.193 6.2 21.501 6.76 21.5C6.996 21.501 7.23 21.446 7.44 21.34L11.992 18.96C12.004 18.953 12.018 18.949 12.032 18.95L16.553 21.31C16.772 21.428 17.017 21.489 17.265 21.488C17.344 21.488 17.424 21.481 17.502 21.47C18.316 21.337 18.872 20.575 18.752 19.76L17.872 14.75C17.8671 14.7429 17.8656 14.7424 17.8652 14.7416C17.865 14.7412 17.865 14.7409 17.865 14.74C17.865 14.737 17.872 14.73 17.872 14.73L21.542 11.18C22.084 10.657 22.153 9.814 21.702 9.21C21.457 8.894 21.098 8.686 20.702 8.63L15.64 7.9C15.631 7.9 15.621 7.89 15.611 7.88L13.35 3.34C13.095 2.827 12.573 2.503 12 2.5C11.834 2.5 11.668 2.526 11.51 2.58C11.131 2.709 10.818 2.981 10.64 3.34L8.382 7.867C8.382 7.888 8.361 7.897 8.341 7.897L3.291 8.627C2.982 8.679 2.694 8.817 2.461 9.027C2.166 9.316 2 9.713 2 10.127C2.001 10.52 2.159 10.896 2.44 11.17L6.14 14.73C6.148 14.738 6.151 14.749 6.151 14.76L5.26 19.75C5.207 20.076 5.264 20.41 5.421 20.7ZM11.971 3.967L11.981 3.96H12L12.009 3.969C12.018 3.969 12.026 3.971 12.033 3.977C12.039 3.983 12.042 3.991 12.041 4L14.301 8.519C14.518 8.964 14.94 9.274 15.43 9.349L20.492 10.085C20.501 10.085 20.51 10.087 20.518 10.091C20.523 10.092 20.527 10.092 20.532 10.091L20.542 10.1L20.532 10.122L16.862 13.681C16.497 14.023 16.334 14.529 16.431 15.02L17.312 20.001L17.292 20.02H17.271C17.267 20.022 17.263 20.022 17.259 20.02C17.249 20.019 17.239 20.015 17.23 20.01H17.221L12.721 17.66C12.505 17.548 12.265 17.488 12.021 17.489C11.77 17.489 11.522 17.552 11.3 17.67L6.771 20.045C6.766 20.046 6.76 20.046 6.755 20.045C6.734 20.045 6.716 20.031 6.711 20.011V19.991L7.591 15.011C7.673 14.524 7.513 14.027 7.161 13.681L3.461 10.131C3.46 10.116 3.462 10.103 3.47 10.09L3.531 10.07L8.561 9.349C9.051 9.273 9.472 8.964 9.69 8.519L11.951 3.989C11.956 3.98 11.962 3.972 11.971 3.967Z" fill="#200E32"/>
</svg>
