<svg width="18" height="18" viewBox="0 0 18 18" fill="none" xmlns="http://www.w3.org/2000/svg">
<path d="M16.4067 7.00626L11.9436 6.35762L9.94845 2.3129C9.89396 2.20215 9.80431 2.11251 9.69357 2.05801C9.41583 1.9209 9.07833 2.03516 8.93946 2.3129L6.94435 6.35762L2.48126 7.00626C2.35821 7.02383 2.24571 7.08184 2.15958 7.16973C2.05545 7.27676 1.99807 7.42075 2.00005 7.57006C2.00203 7.71937 2.0632 7.86179 2.17013 7.96602L5.39923 11.1143L4.63634 15.5598C4.61845 15.6632 4.62989 15.7695 4.66937 15.8668C4.70885 15.964 4.77479 16.0483 4.8597 16.1099C4.94462 16.1716 5.04511 16.2082 5.1498 16.2157C5.25448 16.2232 5.35916 16.2012 5.45196 16.1522L9.44396 14.0533L13.4359 16.1522C13.5449 16.2102 13.6715 16.2295 13.7928 16.2084C14.0986 16.1557 14.3043 15.8656 14.2516 15.5598L13.4887 11.1143L16.7178 7.96602C16.8057 7.87989 16.8637 7.76739 16.8813 7.64434C16.9287 7.33673 16.7143 7.05196 16.4067 7.00626V7.00626Z" fill="#FF6262"/>
</svg>
