<svg width="24" height="24" viewBox="0 0 24 24" fill="none" xmlns="http://www.w3.org/2000/svg">
<g clip-path="url(#clip0_202_10443)">
<path fill-rule="evenodd" clip-rule="evenodd" d="M7.3586 3.2299C7.06449 3.01083 6.64624 3.03517 6.37972 3.30293L2.30194 7.39959L2.22952 7.48388C2.01234 7.77799 2.03751 8.1946 2.30439 8.46025L2.38868 8.53268C2.68279 8.74985 3.0994 8.72468 3.36505 8.4578L6.16116 5.6482V17.4504L6.16801 17.5521C6.21767 17.9182 6.53147 18.2004 6.91116 18.2004C7.32538 18.2004 7.66116 17.8646 7.66116 17.4504V5.64833L10.4575 8.4578L10.5414 8.53061C10.8346 8.74915 11.2513 8.7259 11.5182 8.46025C11.8117 8.16804 11.8128 7.69316 11.5206 7.39959L7.44283 3.30293L7.43763 3.29842C7.41474 3.27586 7.39041 3.25476 7.36479 3.23527L7.3586 3.2299ZM17.5828 6.44437C17.5331 6.0783 17.2193 5.79614 16.8396 5.79614C16.4254 5.79614 16.0896 6.13193 16.0896 6.54614V18.3478L13.2933 15.5387L13.2093 15.4659C12.9162 15.2474 12.4995 15.2706 12.2326 15.5363C11.939 15.8285 11.9379 16.3033 12.2302 16.5969L16.3079 20.6936L16.3131 20.6981C16.336 20.7206 16.3604 20.7417 16.386 20.7612L16.3922 20.7666C16.6863 20.9857 17.1045 20.9613 17.3711 20.6936L21.4488 16.5969L21.5213 16.5126C21.7384 16.2185 21.7133 15.8019 21.4464 15.5363C21.1528 15.244 20.6779 15.2451 20.3857 15.5387L17.5896 18.3469V6.54614L17.5828 6.44437Z" fill="#FF6262"/>
</g>
<defs>
<clipPath id="clip0_202_10443">
<rect width="24" height="24" fill="white"/>
</clipPath>
</defs>
</svg>
