<svg width="24" height="24" viewBox="0 0 24 24" fill="none" xmlns="http://www.w3.org/2000/svg">
<path fill-rule="evenodd" clip-rule="evenodd" d="M7.3586 3.23021C7.06449 3.01114 6.64624 3.03548 6.37972 3.30323L2.30194 7.3999L2.22952 7.48419C2.01234 7.7783 2.03751 8.19491 2.30439 8.46056L2.38868 8.53298C2.68279 8.75016 3.0994 8.72499 3.36505 8.45811L6.16116 5.64851V17.4507L6.16801 17.5524C6.21767 17.9185 6.53147 18.2007 6.91116 18.2007C7.32538 18.2007 7.66116 17.8649 7.66116 17.4507V5.64864L10.4575 8.45811L10.5414 8.53092C10.8346 8.74945 11.2513 8.72621 11.5182 8.46056C11.8117 8.16834 11.8128 7.69347 11.5206 7.3999L7.44283 3.30323L7.43763 3.29873C7.41474 3.27617 7.39041 3.25507 7.36479 3.23558L7.3586 3.23021ZM17.5828 6.44468C17.5331 6.0786 17.2193 5.79645 16.8396 5.79645C16.4254 5.79645 16.0896 6.13223 16.0896 6.54645V18.3481L13.2933 15.539L13.2093 15.4662C12.9162 15.2477 12.4995 15.2709 12.2326 15.5366C11.939 15.8288 11.9379 16.3036 12.2302 16.5972L16.3079 20.6939L16.3131 20.6984C16.336 20.721 16.3604 20.7421 16.386 20.7615L16.3922 20.7669C16.6863 20.986 17.1045 20.9616 17.3711 20.6939L21.4488 16.5972L21.5213 16.5129C21.7384 16.2188 21.7133 15.8022 21.4464 15.5366C21.1528 15.2443 20.6779 15.2454 20.3857 15.539L17.5896 18.3472V6.54645L17.5828 6.44468Z" fill="#200E32"/>
</svg>
