<svg width="24" height="24" viewBox="0 0 24 24" fill="none" xmlns="http://www.w3.org/2000/svg">
<path fill-rule="evenodd" clip-rule="evenodd" d="M17.8562 2.9998H6.14424C3.85603 2.9998 2.00124 4.85459 2.00124 7.1428L2.00024 9.93253C2.0001 10.3469 2.33593 10.6828 2.75024 10.6828C3.60201 10.6828 4.23924 11.2856 4.23924 12.0848C4.23924 12.9096 3.57503 13.5738 2.75024 13.5738C2.33603 13.5738 2.00024 13.9096 2.00024 14.3238V17.0238C2.00024 19.3121 3.85415 21.1668 6.14224 21.1668H17.8572C20.1461 21.1668 22.0002 19.3123 22.0002 17.0238V14.3238C22.0002 13.9096 21.6645 13.5738 21.2502 13.5738C20.4246 13.5738 19.7602 12.9097 19.7602 12.0848C19.7602 11.3079 20.3484 10.6744 21.1063 10.6026L21.2502 10.5958C21.6647 10.5958 22.0006 10.2597 22.0002 9.84525L21.9982 7.14225C21.9982 4.85447 20.1443 2.9998 17.8562 2.9998ZM17.8562 4.4998L18.0234 4.505C19.405 4.59121 20.4982 5.73891 20.4982 7.1428L20.4999 9.191L20.4003 9.21772C19.1615 9.58272 18.2602 10.7261 18.2602 12.0848L18.2653 12.2607C18.3393 13.5409 19.2156 14.6025 20.4004 14.9518L20.4999 14.977L20.5002 17.0238C20.5002 18.484 19.3176 19.6668 17.8572 19.6668H6.14224L5.97512 19.6616C4.59351 19.5754 3.50024 18.4277 3.50024 17.0238L3.49994 14.977L3.59973 14.9518C4.83793 14.5866 5.73924 13.4428 5.73924 12.0848L5.73421 11.9099C5.66074 10.6388 4.79 9.62854 3.60296 9.29796L3.49994 9.272L3.50124 7.14307C3.50124 5.68302 4.68446 4.4998 6.14424 4.4998H17.8562ZM10.4309 9.878L8.87676 10.1041L8.76619 10.1267C8.05142 10.3144 7.78914 11.2257 8.33754 11.7617L9.46294 12.858L9.19757 14.4084L9.18492 14.5154C9.13703 15.2554 9.92703 15.7887 10.6065 15.4343L11.9989 14.702L13.3907 15.4331L13.4887 15.4779C14.1785 15.7503 14.9318 15.1665 14.802 14.4087L14.5349 12.858L15.6618 11.7628L15.7382 11.6796C16.2074 11.1079 15.883 10.2167 15.1258 10.1044L13.5679 9.878L12.8712 8.46725C12.5167 7.74502 11.4872 7.74502 11.1291 8.46552L10.4309 9.878ZM11.9989 10.09L12.3973 10.8954L12.4501 10.9859C12.5675 11.158 12.7525 11.2751 12.9618 11.3055L13.8469 11.434L13.2067 12.0588L13.1368 12.1371C13.009 12.302 12.9547 12.5145 12.9906 12.7232L13.1419 13.608L12.3488 13.1905L12.2528 13.1483C12.0566 13.0779 11.838 13.092 11.6507 13.1905L10.8569 13.607L11.0089 12.7232L11.0194 12.6188C11.0257 12.4103 10.9447 12.2067 10.793 12.059L10.1519 11.434L11.0377 11.3055C11.2819 11.27 11.493 11.1166 11.6022 10.8954L11.9989 10.09Z" fill="#200E32"/>
</svg>
