<svg width="24" height="24" viewBox="0 0 24 24" fill="none" xmlns="http://www.w3.org/2000/svg">
<path fill-rule="evenodd" clip-rule="evenodd" d="M16.3347 2.0002H7.66573C4.26816 2.0002 2.00073 4.43279 2.00073 7.9162V16.0842C2.00073 19.5713 4.26143 22.0002 7.66573 22.0002H16.3337C19.7383 22.0002 22.0007 19.5709 22.0007 16.0842V7.9162C22.0007 4.4297 19.7385 2.0002 16.3347 2.0002ZM7.66573 3.5002H16.3347C18.8852 3.5002 20.5007 5.23516 20.5007 7.9162V16.0842C20.5007 18.7654 18.8851 20.5002 16.3337 20.5002H7.66573C5.11487 20.5002 3.50073 18.7659 3.50073 16.0842V7.9162C3.50073 5.23857 5.12107 3.5002 7.66573 3.5002ZM12.7435 7.53193C12.6938 7.16585 12.38 6.8837 12.0003 6.8837C11.5861 6.8837 11.2503 7.21948 11.2503 7.6337V11.9947L11.2587 12.1064C11.2918 12.3265 11.4217 12.5228 11.6161 12.6388L15.0071 14.6618L15.098 14.708C15.4378 14.853 15.8409 14.728 16.0354 14.4019L16.0817 14.311C16.2266 13.9712 16.1017 13.5681 15.7756 13.3736L12.75 11.568L12.7503 7.6337L12.7435 7.53193Z" fill="#200E32"/>
</svg>
