<svg width="24" height="24" viewBox="0 0 24 24" fill="none" xmlns="http://www.w3.org/2000/svg">
<path fill-rule="evenodd" clip-rule="evenodd" d="M11.9998 2.0005C6.47654 2.0005 1.99976 6.47729 1.99976 12.0005C1.99976 17.5237 6.47654 22.0005 11.9998 22.0005C17.523 22.0005 21.9998 17.5237 21.9998 12.0005C21.9998 6.47729 17.523 2.0005 11.9998 2.0005ZM11.9998 3.5005C16.6945 3.5005 20.4998 7.30572 20.4998 12.0005C20.4998 16.6953 16.6945 20.5005 11.9998 20.5005C7.30497 20.5005 3.49976 16.6953 3.49976 12.0005C3.49976 7.30572 7.30497 3.5005 11.9998 3.5005ZM12.4045 7.74513C12.3548 7.37906 12.0411 7.0969 11.6614 7.0969C11.2471 7.0969 10.9114 7.43269 10.9114 7.8469V12.6939L10.9197 12.8056C10.9528 13.0257 11.0827 13.222 11.2771 13.338L15.0471 15.587L15.138 15.6333C15.4779 15.7782 15.8809 15.6532 16.0755 15.3271L16.1217 15.2362C16.2666 14.8964 16.1417 14.4933 15.8156 14.2988L12.411 12.267L12.4114 7.8469L12.4045 7.74513Z" fill="#200E32"/>
</svg>
