<svg width="24" height="24" viewBox="0 0 24 24" fill="none" xmlns="http://www.w3.org/2000/svg">
<path fill-rule="evenodd" clip-rule="evenodd" d="M2.02148 12.669C2.02148 10.2898 3.89542 8.34785 6.24772 8.23883L6.45648 8.234H7.38948C7.8037 8.234 8.13948 8.56979 8.13948 8.984C8.13948 9.3637 7.85733 9.67749 7.49125 9.72715L7.38948 9.734H6.45648C4.89358 9.734 3.61575 10.956 3.52647 12.4966L3.52148 12.669L3.52148 17.544C3.52148 19.1061 4.74362 20.3837 6.28406 20.473L6.45648 20.478H17.5865C19.1493 20.478 20.4272 19.2561 20.5165 17.7163L20.5215 17.544V12.659C20.5215 11.1016 19.3039 9.82796 17.7693 9.73897L17.5975 9.734H16.6545C16.2403 9.734 15.9045 9.39821 15.9045 8.984C15.9045 8.6043 16.1866 8.29051 16.5527 8.24085L16.6545 8.234H17.5975C19.9687 8.234 21.9046 10.1008 22.0164 12.4446L22.0215 12.659V17.544C22.0215 19.9224 20.1474 21.8642 17.7952 21.9732L17.5865 21.978H6.45648C4.07743 21.978 2.13535 20.1042 2.02631 17.7527L2.02148 17.544V12.669ZM11.4797 1.67179C11.6162 1.52925 11.8084 1.4405 12.0214 1.4405C12.2365 1.4405 12.4304 1.53104 12.5672 1.6761L15.4687 4.58956C15.761 4.88305 15.76 5.35793 15.4665 5.65022C15.1997 5.91594 14.783 5.93929 14.4898 5.72083L14.4059 5.64804L12.7714 4.00797L12.7714 14.2315C12.7714 14.6457 12.4356 14.9815 12.0214 14.9815C11.6417 14.9815 11.3279 14.6993 11.2782 14.3333L11.2714 14.2315L11.2714 4.0063L9.63779 5.64795C9.37212 5.91481 8.95551 5.93994 8.66142 5.72274L8.57714 5.65031C8.31028 5.38464 8.28514 4.96803 8.50234 4.67393L8.57478 4.58965L11.4797 1.67179Z" fill="#200E32"/>
</svg>
