<svg width="24" height="24" viewBox="0 0 24 24" fill="none" xmlns="http://www.w3.org/2000/svg">
<path fill-rule="evenodd" clip-rule="evenodd" d="M12.9871 3.251L12.8312 3.25696C12.3216 3.3036 11.6944 3.59639 11.2742 3.95237L7.80308 6.781L5.97151 6.78155C4.60399 6.78155 3.59117 7.80421 3.39742 9.18947C3.20413 10.7398 3.19826 13.3244 3.39743 14.7477L3.4241 14.9307C3.66033 16.3131 4.62243 17.2195 5.97151 17.2195L7.80408 17.219L11.364 20.111C11.8158 20.4909 12.4653 20.7623 12.9986 20.7492C14.0465 20.7808 14.9941 20.0125 15.3375 18.8657C15.4171 18.5698 15.4657 18.3119 15.5083 17.9767L15.616 16.9828C15.7895 15.5966 15.7947 8.87315 15.6315 7.1615L15.5504 6.42312C15.4895 5.85969 15.4372 5.51358 15.3446 5.15969C15.0123 4.04974 14.1442 3.30124 13.1288 3.25251L12.9871 3.251ZM12.9641 4.75044L13.0021 4.75029C13.3742 4.73943 13.7428 5.0385 13.9006 5.56489L13.9438 5.75455C13.9709 5.89073 13.9953 6.04957 14.0205 6.25005L14.127 7.20007C14.291 8.5103 14.291 15.4907 14.1273 16.7987L14.0989 17.0503L14.0656 17.3798C14.0147 17.8863 13.9736 18.1618 13.8946 18.4563C13.7428 18.9621 13.3747 19.2606 13.0021 19.2497C12.8296 19.2529 12.5205 19.1237 12.3194 18.9547L8.54285 15.8873C8.40918 15.7787 8.24222 15.7195 8.07002 15.7195H5.97152C5.36412 15.7195 4.97948 15.3346 4.88473 14.5534C4.70277 13.2522 4.70834 10.7991 4.88443 9.38611C4.97902 8.71046 5.4038 8.28156 5.97152 8.28156H8.07002C8.24268 8.28156 8.41005 8.22198 8.54388 8.1129L12.2328 5.10599C12.454 4.91881 12.843 4.74783 12.9641 4.75044ZM19.3325 6.14582C19.0961 5.80573 18.6287 5.72171 18.2886 5.95816C17.9485 6.19461 17.8645 6.66199 18.1009 7.00208C18.9974 8.29153 19.5052 10.0095 19.5052 11.8765C19.5052 13.7433 18.9976 15.4603 18.1009 16.7499C17.8645 17.09 17.9485 17.5574 18.2886 17.7939C18.6287 18.0303 19.0961 17.9463 19.3325 17.6062C20.409 16.0578 21.0052 14.0414 21.0052 11.8765C21.0052 9.7115 20.4089 7.69401 19.3325 6.14582Z" fill="#200E32"/>
</svg>
