<svg width="24" height="24" viewBox="0 0 24 24" fill="none" xmlns="http://www.w3.org/2000/svg">
<path fill-rule="evenodd" clip-rule="evenodd" d="M21.5259 2.76368C21.2331 2.47079 20.7582 2.47079 20.4653 2.76368L15.5766 7.65239C15.5693 7.54238 15.5608 7.44517 15.5506 7.353L15.4908 6.90564L15.389 5.99704C15.3382 5.56341 15.2886 5.26457 15.21 4.96132C14.8561 3.77852 13.9039 3.00352 12.8102 3.03714L12.6551 3.04334C12.1717 3.09031 11.5402 3.38601 11.1182 3.74479L7.62296 6.603L5.77831 6.60397L5.60108 6.60975C4.31687 6.69419 3.37918 7.6943 3.19313 9.02927C2.99832 10.5987 2.99207 13.2083 3.19322 14.6433C3.37385 16.139 4.36321 17.1326 5.77831 17.1326H6.09641L3.31764 19.9113L3.24502 19.9954C3.02717 20.2891 3.05137 20.7057 3.31764 20.972C3.61053 21.2649 4.0854 21.2649 4.3783 20.972L21.5259 3.82434L21.5986 3.74023C21.8164 3.44661 21.7922 3.02995 21.5259 2.76368ZM7.59641 15.6326L14.112 9.11695L14.0985 8.17092C14.0901 7.87957 14.0782 7.68883 14.0606 7.52606L13.9749 6.86652L13.9233 6.38646C13.87 5.89238 13.8262 5.60096 13.7655 5.36476C13.6048 4.82852 13.2318 4.52489 12.817 4.53661C12.7103 4.5343 12.3958 4.66681 12.1695 4.82677L12.0788 4.8967L8.36555 7.93446C8.25836 8.02216 8.12954 8.07802 7.99366 8.09686L7.89066 8.10397H5.77831C5.20494 8.10397 4.776 8.53865 4.68025 9.22514C4.50251 10.6575 4.49658 13.1359 4.68054 14.4492C4.77 15.1895 5.11447 15.5787 5.65866 15.6273L5.77831 15.6326H7.59641ZM14.8705 13.4415C15.2847 13.4474 15.6157 13.788 15.6098 14.2021L15.5932 15.0253C15.5726 15.7859 15.5402 16.361 15.4965 16.7703L15.3827 17.8276C15.3371 18.2105 15.2886 18.4775 15.2025 18.8006C14.8564 19.9571 13.9043 20.7315 12.8518 20.698C12.3752 20.7098 11.8046 20.4946 11.3661 20.1775L11.2082 20.054L9.81163 18.9147C9.49067 18.6529 9.44273 18.1804 9.70457 17.8595C9.9426 17.5677 10.3547 17.5015 10.6688 17.6886L10.7598 17.7524L12.167 18.9005C12.3685 19.0712 12.6808 19.2018 12.8563 19.1986C13.2323 19.2102 13.6049 18.9071 13.7591 18.3929L13.8134 18.1638C13.8375 18.0475 13.8577 17.9249 13.877 17.7786L13.9927 16.7175C14.0515 16.2443 14.0924 15.4108 14.1099 14.1807C14.1158 13.7666 14.4564 13.4356 14.8705 13.4415Z" fill="#200E32"/>
</svg>
